<?xml version="1.0" encoding="utf-8"?>
<svg version="1.1" id="Layer_1" xmlns="http://www.w3.org/2000/svg" xmlns:xlink="http://www.w3.org/1999/xlink" x="0px" y="0px"
	 viewBox="0 0 1082 526" style="enable-background:new 0 0 1082 526;" xml:space="preserve">
<style type="text/css">
	.st0{fill:#C9DAEA;}
	.st1{enable-background:new    ;}
	.st2{fill:#FDEC4D;}
	.st3{fill:#A6D6AD;stroke:#134E4F;stroke-width:10;stroke-linecap:round;stroke-linejoin:round;stroke-miterlimit:10;}
	.st4{fill:#3F3B3C;}
	.st5{fill:#FFFFFF;}
	.st6{fill:#A6D6AD;}
	.st7{fill:#134E4F;}
	.st8{fill:#E17331;}
</style>
<path class="st0" d="M302,332.3v0.5c-17.1-17.2-10.8-30.5-4.2-37.7c2.5-1.9,4.8-3.9,7.2-6l0,0l0,0c29.3-26.1,47.5-62.3,47.5-102.3
	c0-79.4-71.4-143.7-159.4-143.7S33.6,107.5,33.6,186.9c0,40.1,18.2,76.3,47.5,102.3l0,0l0,0c2,1.7,4,3.4,6,5.1
	c6.5,6.9,13.8,20.5-3.6,38.3v-0.3c0,0-69.5,22.5-60.9,67.6c13.4-8.8,25.1-14.9,34.6-19c-3.7,10.7-1.8,24.5,12,41.8
	c8-3.6,15.1-7,21.4-10.1c0.1,21.9,9,41.8,23.5,56.2c-1.1,4.1-1.3,8.4-0.4,13c2.4,12.7,13.1,22.4,25.9,23.6
	c11.5,1.1,21.8-4.5,27.5-13.3c1.1,0,2.2,0.1,3.4,0.1h45.2c1.1,0,2.3,0,3.4-0.1c5.7,8.8,16,14.4,27.5,13.3
	c12.8-1.2,23.5-11,25.9-23.6c0.9-4.6,0.6-8.9-0.4-13c14.4-14.4,23.3-34.2,23.5-56c6.1,3.1,13.1,6.4,20.9,9.9
	c13.8-17.4,15.7-31.2,12-41.8c9.5,4.1,21.1,10.1,34.6,19C371.5,354.8,302,332.3,302,332.3z M300.4,354.4c-1.9-0.9-3.6-1.6-5.1-2.2
	c-0.2-3.1-0.5-6.2-1.1-9.3c2.2,0.6,4.5,1.1,6.9,1.5L300.4,354.4z M91.8,343c-0.5,3-0.9,6-1,9c-1.6,0.6-3.5,1.4-5.6,2.4l-0.7-9.7
	C87,344.2,89.5,343.7,91.8,343z"/>
<g class="st1">
	<path class="st2" d="M428.4,181.2c0,3.1-1.2,4.6-3.5,4.6c-1.2,0-2.1-0.4-2.8-1.3c0.6-0.3,1.1-0.9,1.6-1.8c0.5-0.9,0.7-1.8,0.7-2.7
		c0-0.9-0.2-1.6-0.7-2.2c-0.5-0.6-1.2-0.9-2.2-0.9c-1,0-2,0.3-2.8,1c-0.9,0.7-1.7,1.6-2.5,2.8c-1.5,2.3-2.8,5.3-3.8,9
		c-1,3.6-1.5,7-1.5,9.9c0,3,0.4,5.1,1.3,6.4c0.9,1.3,2.4,2,4.5,2c4.2,0,7.5-1.7,10-5l1.1,0.5c-1.6,4-4.6,6.8-9.1,8.4
		c-1.8,0.6-3.5,0.9-5.2,0.9c0,0-0.1,0-0.1,0c-3.7,0-6.4-1-8.2-2.9c-1.7-1.9-2.6-4.9-2.6-9.1c0-4.2,0.7-8.4,2.1-12.5
		c1.6-4.9,4-8.6,7.1-11c2.4-1.9,5.2-2.8,8.3-2.8c3.9,0,6.4,1.2,7.7,3.6C428.2,179,428.4,180,428.4,181.2z"/>
	<path class="st2" d="M424.6,212l5.3-25h7.2l-0.6,3.1c0.8-0.7,1.7-1.4,2.7-2.1c1-0.7,2.1-1,3.2-1c1.2,0,2,0.4,2.6,1.1
		c0.6,0.8,0.9,1.5,0.9,2.2c0,1.2-0.3,2.2-1,2.9c-0.6,0.7-1.4,1.1-2.3,1.1c-0.9,0-1.5-0.2-1.8-0.6c-0.3-0.4-0.5-0.8-0.5-1.3
		c-0.1-0.4-0.2-0.8-0.3-1c-0.1-0.3-0.3-0.4-0.7-0.4c-0.7,0-1.3,0.2-1.8,0.5c-0.5,0.3-1.1,0.8-1.8,1.4l-4,19H424.6z"/>
	<path class="st2" d="M466.2,203c-3.7,6.2-8.3,9.3-13.7,9.3c-2.4,0-4.3-0.6-5.7-1.8c-1.4-1.2-2.1-3.3-2.1-6.1c0-3.8,1-7.5,2.9-11.1
		c1.5-2.7,3.5-4.7,6.1-5.8c1.3-0.6,2.7-0.9,4.1-0.9c2.3,0,3.9,0.4,4.7,1.3c0.8,0.9,1.2,2,1.2,3.5c0,2.8-1.1,5.3-3.4,7.3
		c-2.3,2-5,3.1-8.1,3.3c-0.1,0.9-0.1,1.6-0.1,2c0,1.7,0.3,2.8,0.9,3.4c0.6,0.5,1.4,0.8,2.5,0.8c1.9,0,3.5-0.4,4.8-1.3
		c1.3-0.9,2.7-2.1,4.2-3.8H466.2z M459.8,191c0-1.2-0.4-1.8-1.2-1.8c-1.2,0-2.4,1.1-3.5,3.2c-1.1,2.1-2,4.5-2.5,7.1
		c1.9-0.1,3.6-1,5.1-2.7C459.1,195.2,459.8,193.2,459.8,191z"/>
	<path class="st2" d="M492.9,203c-2.1,6.2-5.5,9.3-10,9.3c-2.9,0-4.6-1.5-4.9-4.6c-2.2,3.1-4.7,4.6-7.6,4.6s-4.9-1.4-5.9-4.3
		c-0.4-1-0.6-2.2-0.6-3.5c0-1.3,0.1-2.6,0.3-3.9c0.2-1.3,0.6-2.6,1-3.9c1-2.9,2.5-5.2,4.5-7.1c1.9-1.9,4.3-2.8,7-2.8
		c1.4,0,2.5,0.2,3.1,0.7c0.6,0.5,1,1.1,1,1.8v0.4l0.5-2.7h7.2l-3.6,17c-0.1,0.6-0.2,1.1-0.2,1.6c0,1.4,0.7,2.1,2.1,2.1
		c1.8,0,3.1-1.6,4.1-4.7H492.9z M480.3,191.8c0-0.3-0.1-0.7-0.4-1.2c-0.3-0.5-0.9-0.7-1.8-0.7s-1.8,0.5-2.7,1.5
		c-2.1,2.4-3.4,5.8-4,10.3c-0.1,0.7-0.1,1.4-0.1,2.2c0,1.5,0.3,2.5,0.9,3.1c0.4,0.4,0.8,0.5,1.3,0.5c1,0,1.9-0.4,2.7-1.2
		c0.8-0.8,1.4-1.9,1.7-3.2L480.3,191.8z"/>
	<path class="st2" d="M506.3,203c-2.1,6.2-5.7,9.3-10.8,9.3c-1.3,0-2.5-0.5-3.5-1.4c-1-0.9-1.5-2.5-1.5-4.6c0-0.9,0.1-2,0.4-3.3
		l3-14h-1.7l0.4-2h1.6l1.5-6.9l7.4-1l-1.7,7.9h3l-0.4,2h-3l-3.2,15c-0.1,0.6-0.2,1.2-0.2,1.8c0,1.1,0.7,1.7,2,1.7
		c1,0,1.9-0.4,2.7-1.3c0.8-0.8,1.4-1.9,1.8-3.1H506.3z"/>
	<path class="st2" d="M531.5,203c-2.1,6.2-5.5,9.3-10,9.3c-3,0-4.6-1.6-5-4.7c-2,3.2-4.4,4.7-7.4,4.7c-1.5,0-2.8-0.5-3.8-1.4
		c-1-0.9-1.5-2.5-1.5-4.6c0-0.9,0.1-2,0.4-3.3l3.4-16h7.2l-3.6,17c-0.1,0.5-0.1,1-0.1,1.4c0,1.4,0.5,2.1,1.5,2.1
		c1.8,0,3.1-1.5,4-4.4l3.4-16h7.2l-3.6,17c-0.1,0.6-0.2,1.2-0.2,1.8c0,1.1,0.7,1.7,2.1,1.7c1.9,0,3.2-1.5,4.1-4.4H531.5z"/>
	<path class="st2" d="M527.5,212l5.3-25h7.2l-0.6,3.1c0.8-0.7,1.7-1.4,2.7-2.1c1-0.7,2.1-1,3.2-1s2,0.4,2.6,1.1
		c0.6,0.8,0.9,1.5,0.9,2.2c0,1.2-0.3,2.2-1,2.9c-0.6,0.7-1.4,1.1-2.3,1.1c-0.9,0-1.5-0.2-1.8-0.6c-0.3-0.4-0.5-0.8-0.5-1.3
		c-0.1-0.4-0.2-0.8-0.3-1c-0.1-0.3-0.3-0.4-0.7-0.4c-0.7,0-1.3,0.2-1.8,0.5c-0.5,0.3-1.1,0.8-1.8,1.4l-4,19H527.5z"/>
	<path class="st2" d="M569.1,203c-3.7,6.2-8.3,9.3-13.7,9.3c-2.4,0-4.3-0.6-5.7-1.8c-1.4-1.2-2.1-3.3-2.1-6.1c0-3.8,1-7.5,2.9-11.1
		c1.5-2.7,3.5-4.7,6.1-5.8c1.3-0.6,2.7-0.9,4.1-0.9c2.3,0,3.9,0.4,4.7,1.3c0.8,0.9,1.2,2,1.2,3.5c0,2.8-1.1,5.3-3.4,7.3
		c-2.3,2-5,3.1-8.1,3.3c-0.1,0.9-0.1,1.6-0.1,2c0,1.7,0.3,2.8,0.9,3.4c0.6,0.5,1.4,0.8,2.5,0.8c1.9,0,3.5-0.4,4.8-1.3
		c1.3-0.9,2.7-2.1,4.2-3.8H569.1z M562.7,191c0-1.2-0.4-1.8-1.2-1.8c-1.2,0-2.4,1.1-3.5,3.2c-1.1,2.1-2,4.5-2.5,7.1
		c1.9-0.1,3.6-1,5.1-2.7S562.7,193.2,562.7,191z"/>
	<path class="st2" d="M582,185.5c0.1,3.1,0.3,5.7,0.4,7.8l0.6,7.9c0.1,0.8,0.1,1.7,0.1,2.6c0,1-0.2,1.9-0.5,2.7
		c-0.3,0.9-0.7,1.6-1.2,2.2c-1,1.2-2.2,2.1-3.7,2.6c-1.5,0.6-3,0.8-4.4,0.8c-2.5,0-4.3-0.6-5.6-1.9c-1.3-1.3-1.9-2.6-1.9-4.1
		c0-1.4,0.3-2.6,0.8-3.4c0.6-0.8,1.2-1.4,1.8-1.7c2.3-4.2,4.4-9.1,6.2-14.8L582,185.5z M571.1,208.3c3.2,0,4.8-1.5,4.8-4.6
		c0-0.9-0.1-1.9-0.2-3.1l-0.3-2.9c-0.2-1.8-0.3-3.8-0.5-5.9c-0.8,2.7-2.2,5.9-4.1,9.4c0.8,0.4,1.1,0.9,1.1,1.6
		c0,0.7-0.2,1.3-0.6,1.8c-0.4,0.5-0.9,0.8-1.6,0.8s-1.1-0.2-1.3-0.7C568.4,207.2,569.3,208.3,571.1,208.3z"/>
	<path class="st2" d="M622.1,193c-2,2.1-5,3.5-8.9,4.2c-0.4,4.6-1.7,8.2-3.9,10.9c-2.2,2.7-4.9,4.1-8,4.1c-3.8,0-6.3-1.4-7.4-4.2
		c-0.4-1-0.6-2.1-0.6-3.3c0-1.2,0.1-2.4,0.3-3.7c0.2-1.2,0.5-2.5,1-3.8c1-3,2.4-5.4,4.3-7.3c2.2-2.2,4.9-3.3,8.1-3.3
		c4.3,0,6.4,2.7,6.4,8v0c0.2,0,0.4,0,0.8,0c0.9,0,2-0.3,3.5-0.9c1.4-0.6,2.7-1.3,4-2.1L622.1,193z M609.1,197.3
		c-0.9-0.2-1.3-1-1.3-2.2c0-1.3,0.5-2.1,1.6-2.6c-0.1-1.1-0.2-1.8-0.5-2.2s-0.8-0.7-1.6-0.7c-1.5,0-3,1.7-4.4,5.1
		c-1.4,3.4-2.1,6.4-2.1,9c0,1.6,0.1,2.6,0.4,3.1c0.3,0.4,0.6,0.7,0.9,0.8c0.3,0.1,0.8,0.2,1.3,0.2c1.1,0,2.3-1,3.4-3
		S608.7,200.2,609.1,197.3z"/>
	<path class="st2" d="M632.7,182c0.1-0.5,0.1-1,0.1-1.5c0-0.5-0.2-0.9-0.6-1.1c-0.4-0.3-0.8-0.4-1.1-0.4c-0.8,0-1.6,0.3-2.2,0.9
		c-0.7,0.6-1.2,1.7-1.5,3.2l-0.9,4h3.7l-0.4,2h-3.7l-5.8,27c-1.1,5.7-4.1,8.5-8.9,8.5c-1.5,0-2.9-0.5-4.1-1.5
		c-1.2-1-1.8-2.2-1.8-3.6c0-1.4,0.2-2.4,0.7-3.2c0.5-0.8,1.1-1.5,1.9-2.1c1.1-0.8,3.2-1.6,6.1-2.5l6.1-28.6c1.2-5.7,4.2-8.5,9.1-8.5
		c1.5,0,2.9,0.5,4.1,1.5c1.2,1,1.8,2.3,1.8,3.9c0,0.8,0,1.4-0.1,2.1H632.7z M613.8,213.2c-1.8,0.6-3,1.2-3.7,1.7
		c-1.2,1-1.8,2.1-1.8,3.4c0,0.7,0.4,1.2,1.2,1.5c0.2,0.1,0.6,0.1,1,0.1s0.9-0.3,1.4-0.9c0.5-0.6,0.9-1.6,1.2-3.1L613.8,213.2z"/>
	<path class="st2" d="M661.2,178c-2.2,0.9-3.9,2.3-5.2,4.1c-1.3,1.8-1.9,4.1-1.9,6.8c0,1.3,0.2,2.3,0.6,3.1c0.1,0.1,0.1,0.2,0.1,0.3
		c-2.7,0-4.3-0.9-5-2.6c-0.2-0.6-0.4-1.4-0.4-2.3c0-1.7,0.5-3.3,1.6-4.8c1-1.6,2.4-2.9,4.1-4.1c3.8-2.7,7.8-4,11.9-4h2l-7.5,35.5
		c-0.9,4.1-2.3,7.1-4.3,9.2c-2,2.1-4.9,3.1-8.8,3.1c-2.4,0-4.2-0.7-5.5-2c-1.3-1.3-1.9-2.9-1.9-4.9c0-1.9,0.5-3.6,1.6-4.9
		c1.1-1.3,2.5-2,4.1-2s2.8,0.1,3.4,0.4c1.3,0.6,1.9,1.5,1.9,2.9c0,0.6-0.1,1.3-0.3,2c-0.9-0.7-1.6-1.2-2-1.2c-0.4-0.1-0.7-0.1-1-0.1
		c-1.2,0-2,0.4-2.6,1.1c-0.6,0.8-0.9,1.5-0.9,2.3c0,1.3,0.3,2.3,1,2.9c0.7,0.6,1.4,0.9,2.1,0.9c1.4,0,2.4-0.4,3.1-1.2
		c0.7-0.8,1.3-2.5,1.9-4.9L661.2,178z"/>
	<path class="st2" d="M687.8,184.5c1.5-0.9,2.2-2.4,2.2-4.6c0-0.7-0.3-1.3-0.8-2s-1.5-1-2.9-1s-2.5,0.4-3.4,1.1
		c-0.8,0.8-1.2,1.7-1.2,3s0.2,2.2,0.5,2.9c0.6,1.4,1.6,2.7,3.1,4l2.1,1.9c1.8,1.6,3.1,3,3.7,4.1c1.3,2.2,1.9,4.4,1.9,6.6
		c0,4.2-1.4,7.4-4.3,9.6c-2.6,2.1-5.8,3.1-9.8,3.1c-4.9,0-8.1-1.6-9.7-4.7c-0.6-1.1-0.9-2.4-0.9-3.8c0-2.6,0.7-4.7,2.2-6.1
		c1.5-1.5,3.2-2.2,5-2.2s3.2,0.6,4,1.7c0.3,0.4,0.5,1,0.5,1.6c-2.6,0-4.3,0.8-5.3,2.5c-0.4,0.6-0.5,1.3-0.5,2c0,1.4,0.4,2.6,1.3,3.5
		c0.8,0.9,2.1,1.4,3.7,1.4s3-0.6,4-1.7c1.1-1.2,1.6-2.6,1.6-4.4c0-1.8-0.3-3.2-0.8-4.4c-0.5-1.1-1.1-2.2-1.9-3.2
		c-0.8-1-1.6-1.9-2.5-2.8c-0.9-0.9-1.7-1.8-2.5-2.7c-1.8-2.1-2.7-4.2-2.7-6.3c0-2.6,1.1-4.7,3.3-6.4c2.2-1.7,5-2.6,8.2-2.6
		c4,0,6.6,1.2,7.6,3.7c0.3,0.7,0.4,1.6,0.4,2.8c0,1.2-0.4,2.3-1.1,3.2c-0.7,0.9-1.6,1.4-2.7,1.4S688.4,185.2,687.8,184.5z"/>
	<path class="st2" d="M711.9,210.5l-2.6,12.2l-7.5,1.8l8.3-39.4h7.2l-0.8,3.8c1.7-1.4,3.6-2.1,5.8-2.1c2.9,0,4.8,1.4,5.6,4.2
		c0.3,1,0.5,2.2,0.5,3.5c0,1.3-0.1,2.6-0.2,3.9c-0.2,1.3-0.4,2.6-0.8,3.9c-0.4,1.3-0.9,2.6-1.5,3.8c-0.6,1.2-1.4,2.3-2.3,3.2
		c-0.9,0.9-2,1.7-3.2,2.2c-1.2,0.6-2.8,0.8-4.7,0.8C713.9,212.3,712.6,211.7,711.9,210.5z M721.6,194.5c0-2.8-0.8-4.2-2.5-4.2
		c-0.6,0-1.2,0.2-1.8,0.6c-0.6,0.4-1.2,1-1.6,1.9l-3,14c0.3,0.8,1,1.1,2.1,1.1c1.1,0,2.1-0.5,3-1.4c1.7-1.9,2.9-4.5,3.4-8
		C721.5,197,721.6,195.7,721.6,194.5z"/>
	<path class="st2" d="M727.8,212l5.3-25h7.2l-0.6,3.1c0.8-0.7,1.7-1.4,2.7-2.1c1-0.7,2.1-1,3.2-1c1.2,0,2,0.4,2.6,1.1
		c0.6,0.8,0.9,1.5,0.9,2.2c0,1.2-0.3,2.2-1,2.9c-0.6,0.7-1.4,1.1-2.3,1.1c-0.9,0-1.5-0.2-1.8-0.6c-0.3-0.4-0.5-0.8-0.5-1.3
		c-0.1-0.4-0.2-0.8-0.3-1c-0.1-0.3-0.3-0.4-0.7-0.4c-0.7,0-1.3,0.2-1.8,0.5c-0.5,0.3-1.1,0.8-1.8,1.4l-4,19H727.8z"/>
	<path class="st2" d="M769.4,203c-3.7,6.2-8.3,9.3-13.7,9.3c-2.4,0-4.3-0.6-5.7-1.8c-1.4-1.2-2.1-3.3-2.1-6.1c0-3.8,1-7.5,2.9-11.1
		c1.5-2.7,3.5-4.7,6.1-5.8c1.3-0.6,2.7-0.9,4.1-0.9c2.3,0,3.9,0.4,4.7,1.3c0.8,0.9,1.2,2,1.2,3.5c0,2.8-1.1,5.3-3.4,7.3
		c-2.3,2-5,3.1-8.1,3.3c-0.1,0.9-0.1,1.6-0.1,2c0,1.7,0.3,2.8,0.9,3.4c0.6,0.5,1.4,0.8,2.5,0.8c1.9,0,3.5-0.4,4.8-1.3
		c1.3-0.9,2.7-2.1,4.2-3.8H769.4z M763,191c0-1.2-0.4-1.8-1.2-1.8c-1.2,0-2.4,1.1-3.5,3.2c-1.1,2.1-2,4.5-2.5,7.1
		c1.9-0.1,3.6-1,5.1-2.7C762.3,195.2,763,193.2,763,191z"/>
	<path class="st2" d="M788.9,203c-2.1,2.4-4.6,4.5-7.6,6.3c-1.9,2-4.5,3-7.9,3c-2.3,0-4.1-0.6-5.4-1.9c-1.3-1.3-1.9-2.6-1.9-4.1
		c0-1.4,0.3-2.6,0.8-3.4c0.6-0.8,1.2-1.4,1.8-1.7c2.3-4.2,4.4-9.1,6.2-14.8l7.4-1c0.1,3.1,0.3,5.7,0.4,7.8l0.6,7.9
		c0.1,0.8,0.1,1.6,0.1,2.3c0,0.8-0.1,1.4-0.2,2c1.5-0.8,2.7-1.7,3.6-2.5H788.9z M771.3,208.3c3.2,0,4.8-1.5,4.8-4.6
		c0-0.9-0.1-1.9-0.2-3.1l-0.3-2.9c-0.2-1.8-0.3-3.8-0.5-5.9c-0.8,2.7-2.2,5.9-4.1,9.4c0.8,0.4,1.1,0.9,1.1,1.6
		c0,0.7-0.2,1.3-0.6,1.8c-0.4,0.5-0.9,0.8-1.6,0.8c-0.7,0-1.1-0.2-1.3-0.7C768.7,207.2,769.6,208.3,771.3,208.3z"/>
	<path class="st2" d="M807.7,203c-3.7,6.2-8.3,9.3-13.7,9.3c-2.4,0-4.3-0.6-5.7-1.8c-1.4-1.2-2.1-3.3-2.1-6.1c0-3.8,1-7.5,2.9-11.1
		c1.5-2.7,3.5-4.7,6.1-5.8c1.3-0.6,2.7-0.9,4.1-0.9c2.3,0,3.9,0.4,4.7,1.3c0.8,0.9,1.2,2,1.2,3.5c0,2.8-1.1,5.3-3.4,7.3
		c-2.3,2-5,3.1-8.1,3.3c-0.1,0.9-0.1,1.6-0.1,2c0,1.7,0.3,2.8,0.9,3.4c0.6,0.5,1.4,0.8,2.5,0.8c1.9,0,3.5-0.4,4.8-1.3
		c1.3-0.9,2.7-2.1,4.2-3.8H807.7z M801.3,191c0-1.2-0.4-1.8-1.2-1.8c-1.2,0-2.4,1.1-3.5,3.2c-1.1,2.1-2,4.5-2.5,7.1
		c1.9-0.1,3.6-1,5.1-2.7C800.5,195.2,801.3,193.2,801.3,191z"/>
	<path class="st2" d="M825,205.3c0,1.4,0.6,2.1,1.8,2.1c1.1,0,2-0.4,2.6-1.1c0.6-0.7,1.2-1.8,1.8-3.3h2.1c-1.9,5.6-4.6,8.7-7.9,9.2
		c-0.5,0.1-1.2,0.1-1.9,0.1c-0.8,0-1.5-0.2-2.3-0.5c-2.1-0.9-3.1-2.6-3.1-5.2c0-1.4,0.4-3.5,1.1-6.5c0.7-3,1.1-5.1,1.1-6.2
		c0-1.7-0.6-2.6-1.8-2.6c-1.2,0-2.3,1-3.2,2.9c-0.3,0.5-0.5,1.1-0.7,1.8l-3.4,16h-7.2l5.3-25h7.2l-0.5,2.6c1.6-1.9,3.6-2.8,5.8-2.8
		c1.6,0,2.9,0.4,4,1.3c1.1,0.9,1.6,2.2,1.6,3.9c0,1.7-0.3,3.7-0.8,5.9l-1.2,4.8C825.1,203.8,825,204.6,825,205.3z"/>
	<path class="st2" d="M834.4,189h-1.7l0.4-2h1.6l1.5-6.9l7.4-1L842,187h3l-0.4,2h-3l-3.2,15c-0.2,0.6-0.2,1.2-0.2,1.8s0.1,1,0.4,1.3
		c0.2,0.3,0.7,0.5,1.3,0.5c0.6,0,1.1,0,1.4-0.1c-1,2.8-2.3,4.3-4,4.7c-0.5,0.1-0.9,0.1-1.3,0.1c-1.8,0-3.1-0.5-3.8-1.6
		c-0.8-1.1-1.2-2.2-1.2-3.5c0-1.2,0.1-2.3,0.3-3.2L834.4,189z"/>
	<path class="st2" d="M855,205.3c0,1.1-0.4,2-1.2,2.8c-0.8,0.8-1.7,1.1-2.8,1.1c-1.1,0-2-0.4-2.8-1.1c-0.8-0.8-1.1-1.7-1.1-2.8
		c0-1.1,0.4-2,1.1-2.8c0.8-0.8,1.7-1.2,2.8-1.2c1.1,0,2.1,0.4,2.8,1.2C854.6,203.2,855,204.2,855,205.3z M856.3,190.4
		c0.8,0.8,1.2,1.7,1.2,2.8c0,1.1-0.4,2.1-1.2,2.8c-0.8,0.8-1.7,1.1-2.8,1.1c-1.1,0-2-0.4-2.8-1.1c-0.8-0.8-1.1-1.7-1.1-2.8
		c0-1.1,0.4-2,1.1-2.8c0.8-0.8,1.7-1.2,2.8-1.2C854.6,189.2,855.5,189.6,856.3,190.4z"/>
</g>
<path class="st3" d="M76,317.1c0,0-69.5,22.5-60.9,67.6C54.8,358.6,78.8,357,78.8,357"/>
<path class="st3" d="M88.5,334.9c0,0-69,19.6-26.9,72.7c64-28.9,67.4-41.4,67.4-41.4"/>
<path class="st3" d="M294.3,317.1c0,0,69.5,22.5,60.9,67.6c-39.8-26.1-63.7-27.7-63.7-27.7"/>
<path class="st3" d="M281.8,334.9c0,0,69,19.6,26.9,72.7c-64-28.9-67.4-41.4-67.4-41.4"/>
<path class="st3" d="M208,477.1h-45.2c-43.9,0-79.8-35.9-79.8-79.8v-56c0-43.9,35.9-79.8,79.8-79.8H208c43.9,0,79.8,35.9,79.8,79.8
	v56C287.8,441.2,251.9,477.1,208,477.1z"/>
<ellipse class="st3" cx="185.4" cy="171.6" rx="159.4" ry="143.7"/>
<g>
	<path class="st3" d="M73.5,274c0,0,38.3,23.3-15.1,57.2c67-0.9,70.6-52.6,70.6-52.6"/>
	<path class="st3" d="M129,278.6c0,0-19.9,46.2,24.1,90.6c37.7-44.4,32.5-90.6,32.5-90.6"/>
	<path class="st3" d="M297.3,273.9c0,0-39.4,22.9,14,56.9c-67-0.9-69.2-52.2-69.2-52.2"/>
	<path class="st3" d="M242.1,278.6c0,0,19.9,46.2-24.1,90.6c-37.7-44.4-32.5-90.6-32.5-90.6"/>
</g>
<g>
	<circle class="st4" cx="118.9" cy="134.1" r="33.8"/>
	<path class="st5" d="M126.7,124.5c0,7.9-6.4,0-14.3,0s-14.3,7.9-14.3,0s6.4-14.3,14.3-14.3S126.7,116.7,126.7,124.5z"/>
	<circle class="st5" cx="133.2" cy="147.4" r="6.3"/>
	<circle class="st4" cx="251.8" cy="134.1" r="33.8"/>
	<path class="st5" d="M259.6,124.5c0,7.9-6.4,0-14.3,0s-14.3,7.9-14.3,0s6.4-14.3,14.3-14.3S259.6,116.7,259.6,124.5z"/>
	<circle class="st5" cx="266.1" cy="147.4" r="6.3"/>
</g>
<path class="st3" d="M167.6,432.6c-3.2,3.2-15.2,5.1-15.2,5.1l0.1,0.2c-3-2.3-6.5-4-10.3-5c-0.1-0.2-7.2-9.8-7.2-14.3
	c0,4.4-6.1,12.1-7.9,14.4c-3.6,1-7,2.6-9.9,4.8c-1.5-0.2-12-2-15-5c3.5,3.5,5,16.9,5.2,18c-1.3,3.3-1.9,6.8-1.9,10.5
	c0,16.2,13.1,29.3,29.3,29.3s29.3-13.1,29.3-29.3c0-3.7-0.7-7.2-1.9-10.5C162.3,449.5,164.1,436.1,167.6,432.6z"/>
<path class="st3" d="M203.2,432.6c3.2,3.2,15.2,5.1,15.2,5.1l-0.1,0.2c3-2.3,6.5-4,10.3-5c0.1-0.2,7.2-9.8,7.2-14.3
	c0,4.4,6.1,12.1,7.9,14.4c3.6,1,7,2.6,9.9,4.8c1.5-0.2,12-2,15-5c-3.5,3.5-5,16.9-5.2,18c1.3,3.3,1.9,6.8,1.9,10.5
	c0,16.2-13.1,29.3-29.3,29.3s-29.3-13.1-29.3-29.3c0-3.7,0.7-7.2,1.9-10.5C208.5,449.5,206.7,436.1,203.2,432.6z"/>
<g>
	<path class="st6" d="M1026.5,437.1c0-0.3,0-0.5,0-0.8c0-2.9,0.7-5.4,2-7.6c1.4-2.1,3-3.7,4.9-4.7c3.4-6,6.3-12.2,8.9-18.6
		c2.7-6.7,5.1-13.5,7.2-20.3l19.5-2.6c0.4,11.2,1.2,23.4,2.2,36.4c0.4,5.3,0.7,9.1,0.7,11.4c0,5.3-1.4,9.7-4.1,13.2
		c-2.7,3.4-6.1,5.9-10.1,7.4s-8,2.2-12.2,2.2s-7.8-0.8-10.7-2.4c-2.9-1.6-5-3.7-6.4-6.3c-0.1-0.2-0.2-0.4-0.3-0.7
		c-4.9,5.7-11,8.6-18.5,8.6c-3.6,0-6.5-1-8.7-2.9s-3.6-4.7-4.1-8.4c-2.3,3.5-5,6.4-8.2,8.7c-3.2,2.3-6.9,3.4-11.2,3.4
		c-5,0-9.2-1.7-12.5-5.1s-5-8.8-5-16c0-6.5,1.3-13.3,3.9-20.5c2.6-7.1,6.4-13.2,11.6-18.1c5.1-5,11.2-7.4,18.3-7.4
		c3.6,0,6.3,0.6,8,1.8c1.8,1.2,2.6,2.8,2.6,4.9v0.5l6.4-30.3l19.5-2.6l-15.1,71c-0.4,1.4-0.5,2.8-0.5,4.2c0,1.8,0.4,3,1.3,3.7
		c0.8,0.7,2.2,1.1,4.1,1.1c2.5,0,4.6-1.1,6.4-3.2L1026.5,437.1L1026.5,437.1z M908.7,445.4c-1,1-1.9,1.9-3,2.6
		c-4.8,3.4-9.6,5.1-14.4,5.1c-3.7,0-6.6-1-8.9-3.1c-2.2-2.1-3.6-5.1-4-9c-2.5,3.6-5.4,6.5-8.5,8.7s-6.8,3.4-11.1,3.4
		c-5,0-9.2-1.7-12.5-5.1c-2.5-2.5-4-6.1-4.7-10.8c-8.6,10.6-18.7,15.9-30.3,15.9c-6.5,0-11.5-1.7-15.1-5.1s-5.4-8.7-5.4-15.8
		c0-6.1,1.2-12.7,3.6-20c2.4-7.3,6.3-13.6,11.6-18.9s12-8,20.2-8c5.3,0,9,1.1,11.2,3.4s3.4,5.2,3.4,8.7c0,3.1-0.7,5.4-2,7.1
		s-3,2.5-5,2.5c-1.5,0-3-0.5-4.6-1.6c1.1-2.9,1.6-5.5,1.6-7.8c0-1.7-0.3-3-0.9-3.9c-0.6-1-1.5-1.4-2.8-1.4c-2.6,0-5.3,2.1-7.9,6.4
		c-2.6,4.3-4.8,9.5-6.4,15.7c-1.7,6.1-2.5,11.7-2.5,16.6c0,4.3,0.7,7.2,2.2,8.7s3.9,2.3,7.2,2.3c4.7,0,8.8-1.1,12.2-3.3
		c2.9-1.9,6-4.6,9.4-8.2c0.2-6.1,1.5-12.5,3.9-19.1c2.6-7.1,6.4-13.2,11.6-18.1c5.1-5,11.2-7.4,18.3-7.4c3.6,0,6.3,0.6,8,1.8
		c1.8,1.2,2.6,2.8,2.6,4.9v0.9l1.4-7H906l-9.5,44.7c-0.4,1.4-0.5,2.8-0.5,4.2c0,3.8,1.8,5.7,5.4,5.7c2.5,0,4.6-1.1,6.4-3.4
		c1.8-2.3,3.2-5.2,4.2-8.9l9-42.3h18.9l-1.7,8.2c3-2.6,5.7-4.6,8.1-6c2.4-1.4,5.1-2.1,7.8-2.1c2.8,0,5,1,6.6,2.9s2.4,4.3,2.4,7
		c0,2.5-0.9,4.9-2.5,6.7c-1.7,1.9-4,2.9-7,2.9c-1.9,0-3.2-0.5-3.9-1.4s-1.2-2.3-1.5-4c-0.3-1.1-0.5-2-0.8-2.5s-0.7-0.8-1.4-0.8
		c-1.8,0-3.4,0.4-4.7,1.1s-2.9,2-4.9,3.9l-10.5,50H907L908.7,445.4L908.7,445.4z M705.7,441.4c-2,2.8-4.1,5-6.4,6.6
		c-5.1,3.4-10.1,5.1-15.1,5.1c-4.2,0-7.6-1.3-10.2-3.9c-1.8-1.8-3-4.3-3.5-7.5c-1.9,2.7-4,4.8-6.3,6.4c-5.1,3.4-10.1,5.1-15.1,5.1
		c-4.2,0-7.6-1.3-10.2-3.9c-2.6-2.6-3.9-6.6-3.9-11.8c0-2.2,0.4-5,1.1-8.5l8.9-42.2h18.9l-9.5,44.7c-0.4,1.4-0.5,2.8-0.5,4.2
		c0,1.8,0.4,3,1.3,3.7c0.8,0.7,2.2,1.1,4.1,1.1c2.5,0,4.9-1.1,7.1-3.2c2.2-2.2,3.8-4.9,4.7-8.4l14.1-65.9l19.5-2.6l-15.1,71
		c-0.4,1.4-0.5,2.8-0.5,4.2c0,1.8,0.4,3,1.3,3.7c0.8,0.7,2.2,1.1,4.1,1.1c2.5,0,4.9-1.1,7.1-3.2c1.2-1.1,2.1-2.4,2.9-3.8
		c0-0.4,0-0.7,0-1.1c0-6,1.2-12.7,3.6-20c2.4-7.3,6.2-13.6,11.6-18.9c5.3-5.3,12.1-8,20.4-8c9.6,0,14.5,4.2,14.5,12.6
		c0,4.9-1.4,9.4-4.2,13.5s-6.5,7.4-11.2,9.9c-4.6,2.5-9.7,3.9-14.9,4.3c-0.2,1.9-0.3,3.2-0.3,3.9c0,7.3,2.7,10.9,8.2,10.9
		c2.5,0,5.1-0.7,7.9-2c2.8-1.3,5.3-3,7.6-5c-2.4,13-9.9,19.5-22.8,19.5c-6.4,0-11.4-1.7-15-5.1C708,446.3,706.6,444.1,705.7,441.4
		L705.7,441.4z M606.4,404l4.6-22c2.4-10.9,6.3-18.3,11.8-22.3s11.8-6,18.9-6c6.6,0,12.1,1.1,16.7,3.3c4.6,2.2,6.8,6.1,6.8,11.8
		c0,3.7-1,6.4-3,8.1s-4.5,2.6-7.4,2.6c-2.3,0-4.2-0.5-5.7-1.6s-2.2-2.9-2.2-5.5c0-1.7,0.4-3.2,1.3-4.5c0.8-1.3,1.9-2,3.2-2
		c0.6,0,1,0,1.1,0.1c-0.1-1.8-0.8-3.1-2-3.9c-1.3-0.9-3-1.3-5.2-1.3c-3.9,0-6.9,1.4-9.3,4.2c-2.3,2.8-3.9,6.4-4.7,10.7l-2.2,10.8
		h10.5l-1.1,5.3H628l-15,71c-1.8,8.2-4.8,14-9.1,17.4c-4.3,3.3-9,5-14.1,5c-4.8,0-8.7-1.3-11.8-4c-3-2.7-4.5-6.2-4.5-10.7
		c0-3.7,1.1-6.7,3.2-9.1c2.1-2.4,4.7-4.3,7.8-5.7c3.1-1.4,7-2.9,11.8-4.5l8.7-41.1c-3.6,1.5-7.4,2.5-11.3,3.1
		c-0.7,8-2.5,15-5.4,20.9s-6.6,10.6-11.2,13.8c-4.6,3.2-9.5,4.9-14.9,4.9c-6.5,0-11.6-1.7-15.4-5c-3.8-3.3-5.7-8.6-5.7-15.8
		c0-6,1.2-12.6,3.7-19.9s6.4-13.6,11.8-18.9c5.4-5.3,12.3-8,20.5-8c11.2,0,16.8,7,16.8,21v0.1c0.3,0.1,0.7,0.1,1.4,0.1
		c2.9,0,6.2-0.8,10-2.3C605.9,404.3,606.1,404.1,606.4,404L606.4,404z M442.2,381.7h18.9l-2.1,9.9c4.4-3.8,9.5-5.7,15.4-5.7
		c4.9,0,8.8,1.6,11.7,4.9c2.9,3.2,4.3,8.5,4.3,15.9c0,6.9-1,13.9-3,21s-5.4,13.1-10.3,18c-4.8,5-11.2,7.4-19.1,7.4
		c-5.6,0-9.3-1.6-11.2-4.7l-6.8,32.1l-19.9,4.7L442.2,381.7L442.2,381.7z M502.7,386.5h18.9l-1.7,8.2c3-2.6,5.7-4.6,8.1-6
		c2.4-1.4,5.1-2.1,7.8-2.1c2.8,0,5,1,6.6,2.9s2.4,4.3,2.4,7c0,2.5-0.9,4.9-2.5,6.7c-1.7,1.9-4,2.9-7,2.9c-1.9,0-3.2-0.5-3.9-1.4
		s-1.2-2.3-1.5-4c-0.3-1.1-0.5-2-0.8-2.5s-0.7-0.8-1.4-0.8c-1.8,0-3.4,0.4-4.7,1.1s-2.9,2-4.9,3.9l-10.5,50h-18.9L502.7,386.5
		L502.7,386.5z M759.3,412.7h26.3l-2.2,10.4H757L759.3,412.7L759.3,412.7z M454,441.6c4.2,0,7.7-2,10.5-5.9s4.8-8.7,6.1-14.1
		c1.3-5.5,1.9-10.6,1.9-15.3c0-7.3-2.2-10.9-6.6-10.9c-1.6,0-3.2,0.6-4.8,1.7c-1.6,1.1-3,2.7-4.3,4.7l-7.8,36.8
		C449.7,440.6,451.4,441.6,454,441.6z M567.6,441c2.1,0,4.2-1.2,6.3-3.6s3.9-5.7,5.5-9.9c1.6-4.2,2.7-8.8,3.4-13.9
		c-2.4-0.5-3.5-2.4-3.5-5.5c0-3.6,1.4-6,4.1-7.1c-0.2-2.9-0.6-4.9-1.3-6s-1.9-1.6-3.7-1.6c-2.9,0-5.7,2.1-8.4,6.3
		c-2.7,4.2-4.9,9.2-6.6,15.1c-1.7,5.9-2.5,11-2.5,15.5c0,4.2,0.5,7,1.4,8.5C563.3,440.3,565.1,441,567.6,441z M586.3,473.5
		c1.5,0,3-0.8,4.4-2.5s2.5-4.3,3.2-7.8l1.6-7.6c-4.5,1.4-8,3.2-10.7,5.3c-2.6,2.1-3.9,4.6-3.9,7.3c0,1.9,0.6,3.3,1.8,4.1
		S585.2,473.5,586.3,473.5L586.3,473.5z M725.1,419.4c3.3-0.1,6.5-1.2,9.4-3.3c2.9-2.1,5.3-4.8,7.1-8.1c1.8-3.3,2.7-6.7,2.7-10.3
		c0-3.6-1.1-5.4-3.3-5.4c-3.1,0-6.1,2.8-9.1,8.4C728.8,406.2,726.5,412.5,725.1,419.4L725.1,419.4z M867.4,440.3
		c2.2,0,4.4-1,6.5-3.1c2.2-2.1,3.6-4.9,4.4-8.5l6.3-29.7c0-1.1-0.4-2.3-1.3-3.4c-0.9-1.1-2.2-1.6-4.1-1.6c-3.5,0-6.7,2-9.5,6.1
		s-5,9-6.6,14.7s-2.4,10.8-2.4,15.2s0.6,7.2,1.9,8.4C864,439.7,865.5,440.3,867.4,440.3L867.4,440.3z M986,440.3
		c2.1,0,4.2-1,6.4-2.9c2.1-1.9,3.6-4.6,4.4-8v-0.7l6.4-30.1c-0.8-3.1-2.6-4.6-5.4-4.6c-3.5,0-6.7,2-9.5,6.1s-5,9-6.6,14.7
		s-2.4,10.8-2.4,15.2c0,4.4,0.6,7.2,1.9,8.4C982.6,439.7,984.1,440.3,986,440.3L986,440.3z M1041.5,442.7c3.2,0,6-1,8.2-2.9
		s3.3-5,3.3-9.3c0-2.6-0.3-6.3-0.8-11c-0.9-10-1.4-16.7-1.7-20.1c-2.1,6.9-5.7,15.2-10.7,24.9c2,1.1,3,2.6,3,4.6
		c0,1.7-0.5,3.2-1.6,4.5s-2.5,2-4.1,2c-1.8,0-3-0.6-3.6-1.7c0,3.2,0.6,5.5,1.9,7C1036.6,441.9,1038.7,442.7,1041.5,442.7z
		 M824.5,330.1c-1.7,2.7-3.5,4.8-5.4,6.3c-4.3,3.3-8.7,4.9-13.2,4.9c-5.3,0-9.3-1.4-11.8-4.3c-2.5-2.8-3.7-6.4-3.7-10.6
		c0-1.8,0.2-3.9,0.7-6.2c0.4-2.3,0.9-4.6,1.4-6.8c0.5-2.2,0.8-3.6,1-4.2c0.7-3.1,1.4-6.1,2-9.1s0.9-5.4,0.9-7.2
		c0-4.5-1.6-6.7-4.7-6.7c-2.3,0-4.3,1.1-6.1,3.4c-1.8,2.2-3.2,5.2-4.2,8.7l-8.9,42.2h-18.9l9.6-45.4c0.3-1.1,0.4-2.2,0.4-3.3
		c0-3.9-1.3-5.8-3.9-5.8c-2.5,0-4.6,1.1-6.4,3.4c-1.8,2.2-3.2,5.2-4.3,8.9l-8.9,42.2H721l8.9-42.1c-3.6,1.4-7.2,2.4-11,3
		c-0.7,8-2.5,14.9-5.4,20.9s-6.6,10.6-11.2,13.8c-4.6,3.2-9.5,4.9-14.9,4.9c-6.5,0-11.6-1.7-15.4-5c-3-2.7-4.9-6.6-5.4-11.9
		c-4,3.5-8.3,6.6-13,9.2c-2.5,2.7-5.7,4.7-9.4,6s-7.5,1.9-11.2,1.9c-4.2,0-7.8-0.8-10.7-2.4s-5-3.7-6.4-6.3
		c-0.8-1.4-1.3-2.8-1.7-4.4c-8.1,8.7-17.4,13.1-27.9,13.1c-6.5,0-11.5-1.7-15.1-5.1s-5.4-8.7-5.4-15.8c0-6,1.2-12.7,3.6-20
		c2.4-7.3,6.2-13.6,11.6-18.9c5.3-5.3,12.1-8,20.4-8c9.6,0,14.5,4.2,14.5,12.6c0,4.9-1.4,9.4-4.2,13.5s-6.5,7.4-11.2,9.9
		c-4.6,2.5-9.7,3.9-14.9,4.3c-0.2,2.6-0.3,4.4-0.3,5.3c0,4.3,0.7,7.2,2.2,8.7s3.9,2.3,7.2,2.3c4.7,0,8.8-1.1,12.2-3.3
		c2.3-1.5,4.7-3.5,7.3-6c0.3-1.4,0.9-2.8,1.7-4.1c1.4-2.1,3-3.7,4.9-4.7c3.4-6,6.3-12.2,8.9-18.6c2.7-6.7,5.1-13.4,7.2-20.3
		l19.5-2.6c0.4,11.2,1.2,23.4,2.2,36.4c0.4,5.3,0.7,9.1,0.7,11.4c0,2-0.2,3.7-0.5,5c3.1-1.8,5.7-3.5,7.7-5
		c0.2-5.5,1.4-11.5,3.6-18.1c2.5-7.3,6.4-13.6,11.8-18.9c5.4-5.3,12.3-8,20.5-8c11.2,0,16.8,7,16.8,21v0.1c0.3,0.1,0.7,0.1,1.4,0.1
		c2.9,0,6.2-0.8,10-2.3l0.5-0.2l3.7-17.6h18.9l-1.4,6.8c4.5-5,9.8-7.5,16-7.5c7.7,0,12.2,3.8,13.5,11.3c4.8-7.5,10.9-11.2,18.3-11.2
		c4.5,0,8,1.2,10.7,3.7c2.6,2.5,3.9,6.2,3.9,11.2c0,2.5-0.3,5.4-0.9,8.5c-0.8,3.8-1.7,7.6-2.6,11.4c-0.7,2.6-1.3,5.3-1.9,8
		c-0.6,2.6-0.9,4.6-0.9,6.1c0,1.8,0.4,3.1,1.2,4.1s2.1,1.4,4.1,1.4c2.6,0,4.7-0.9,6.3-2.8c1-1.2,1.9-2.7,2.9-4.6c0-0.2,0-0.5,0-0.7
		c0-6,1.2-12.7,3.5-20c2.4-7.3,6.2-13.6,11.6-18.9c5.3-5.3,12.1-8,20.4-8c9.6,0,14.5,4.2,14.5,12.6c0,4.9-1.4,9.4-4.2,13.5
		s-6.5,7.4-11.2,9.9c-4.6,2.5-9.7,3.9-14.9,4.3c-0.2,1.9-0.3,3.2-0.3,3.9c0,7.3,2.7,10.9,8.2,10.9c2.5,0,5.1-0.7,7.9-2
		c2.8-1.3,5.3-3,7.6-5c-2.4,13-10,19.5-22.8,19.5c-6.4,0-11.4-1.7-15-5.1C826.7,334.6,825.4,332.6,824.5,330.1L824.5,330.1z
		 M421.4,355.5c-3.2,0-6.1-0.3-8.5-0.8c-2.5-0.5-4.6-1.8-6.4-3.8s-2.7-5.1-2.7-9.3c0-5.9,1.8-13.8,5.3-23.7
		c3.6-9.9,8.2-19.9,14-29.9c-4.4,0.3-7.8,0.9-10.4,2c-2.5,1.1-4.2,2.7-5,4.9c0.3,0,0.7,0.4,1.1,1.3s0.6,1.8,0.6,2.8
		c0,1.6-0.7,2.8-2.1,3.7c-1.4,0.9-3.2,1.4-5.3,1.4c-2.5,0-4.4-0.7-5.9-2s-2.2-3.2-2.2-5.7c0-3,1.2-5.7,3.5-8.2s5.5-4.4,9.7-5.9
		c4.1-1.4,8.7-2.2,13.7-2.2c1.8,0,4.1,0.1,6.8,0.4c7.2-11.4,14.8-20.7,22.8-27.9s15.7-10.9,23-10.9c4.2,0,7.7,0.6,10.4,1.8
		l-20.7,96.8h-18.9l10.1-47.7c-3.2-1.5-6.2-2.6-8.9-3.3c-2.8-0.7-5.8-1.2-8.7-1.4c-5,10.7-9.1,21.7-12.3,33.1
		c-3.2,11.3-4.8,20.3-4.8,27C419.5,351.5,420.1,353.9,421.4,355.5L421.4,355.5z M493.6,341.3c-4.2,0-7.6-1.3-10.2-3.9
		s-3.9-6.6-3.9-11.8c0-2.2,0.4-5,1.1-8.5l8.9-42.2h18.9l-9.5,44.7c-0.3,1.1-0.4,2.2-0.4,3.3c0,3.9,1.3,5.8,3.9,5.8
		c2.5,0,4.6-1,6.3-3.1c1.8-2.1,3.2-4.9,4.2-8.5l8.9-42.2h18.9l-9.5,44.7c-0.4,2.2-0.7,3.8-0.7,4.7c0,2.9,1.5,4.3,4.5,4.3
		c4,0,7.8-2.5,11.2-7.6c3.5-5.1,6.2-11.1,8.4-18.1c2.1-7,3.2-13.1,3.2-18.1c-0.2,0.4-0.7,0.8-1.7,1c-0.8,0.2-1.7,0.3-2.5,0.3
		c-1.5,0-2.7-0.7-3.5-2.1s-1.3-3-1.2-4.6c0-2.1,0.7-3.8,2-5.1c1.4-1.3,3.4-2,6.1-2c2.9,0,5,1.1,6.3,3.2s2,4.9,2,8.2
		c0,7.9-1.4,16.3-4.1,25.3c-2.7,9-6.9,16.6-12.5,22.9s-12.6,9.5-20.9,9.5c-4.3,0-7.8-0.9-10.5-2.8c-2.7-1.8-4.5-4.6-5.3-8.3
		C507.3,337.6,501.1,341.3,493.6,341.3L493.6,341.3z M463.1,251.2c-3.8,2-7.7,5.8-11.8,11.2c-4.1,5.5-8,12.1-11.9,19.9
		c6.3,1.2,11.7,2.8,16,4.6L463.1,251.2L463.1,251.2z M586.6,307.6c3.2-0.2,6.3-1.3,9.3-3.4c2.9-2.1,5.4-4.8,7.1-8
		c1.8-3.2,2.7-6.7,2.7-10.3c0-3.6-1.1-5.4-3.3-5.4c-3.2,0-6.2,2.8-9.3,8.3C590,294.3,587.9,300.6,586.6,307.6L586.6,307.6z
		 M628.8,330.9c3.2,0,6-1,8.2-2.9s3.3-5,3.3-9.3c0-2.6-0.3-6.3-0.8-11c-0.9-10-1.4-16.7-1.7-20.1c-2.1,6.9-5.7,15.2-10.7,24.9
		c2,1.1,3,2.6,3,4.6c0,1.7-0.5,3.2-1.6,4.5s-2.5,2-4.1,2c-1.8,0-3-0.6-3.6-1.7c0,3.2,0.6,5.5,1.9,7
		C623.9,330.2,626,330.9,628.8,330.9z M692.7,329.2c2.1,0,4.2-1.2,6.3-3.6s3.9-5.7,5.5-9.9c1.6-4.2,2.7-8.8,3.4-13.9
		c-2.4-0.5-3.5-2.4-3.5-5.5c0-3.6,1.4-6,4.1-7.1c-0.2-2.9-0.6-4.9-1.3-6s-1.9-1.6-3.7-1.6c-2.9,0-5.7,2.1-8.4,6.3
		c-2.7,4.2-4.9,9.3-6.6,15.1c-1.7,5.9-2.5,11-2.5,15.5c0,4.2,0.5,7,1.4,8.5C688.4,328.5,690.2,329.2,692.7,329.2L692.7,329.2z
		 M843.7,307.6c3.3-0.1,6.5-1.2,9.4-3.3c2.9-2.1,5.3-4.8,7.1-8.1c1.8-3.3,2.7-6.7,2.7-10.3c0-3.6-1.1-5.4-3.3-5.4
		c-3.1,0-6.1,2.8-9.1,8.4C847.4,294.4,845.2,300.7,843.7,307.6z"/>
	<path class="st7" d="M1023.2,433.8c0-0.3,0-0.5,0-0.8c0-2.9,0.7-5.4,2-7.6c1.4-2.1,3-3.7,4.9-4.7c3.4-6,6.3-12.2,8.9-18.6
		c2.7-6.7,5.1-13.5,7.2-20.3l19.5-2.6c0.4,11.2,1.2,23.4,2.2,36.4c0.4,5.3,0.7,9.1,0.7,11.4c0,5.3-1.4,9.7-4.1,13.2
		c-2.7,3.4-6.1,5.9-10.1,7.4s-8,2.2-12.2,2.2s-7.8-0.8-10.7-2.4c-2.9-1.6-5-3.7-6.4-6.3c-0.1-0.2-0.2-0.4-0.3-0.7
		c-4.9,5.7-11,8.6-18.5,8.6c-3.6,0-6.5-1-8.7-2.9s-3.6-4.7-4.1-8.4c-2.3,3.5-5,6.4-8.2,8.7c-3.2,2.3-6.9,3.4-11.2,3.4
		c-5,0-9.2-1.7-12.5-5.1s-5-8.8-5-16c0-6.5,1.3-13.3,3.9-20.5c2.6-7.1,6.4-13.2,11.6-18.1c5.1-5,11.2-7.4,18.3-7.4
		c3.6,0,6.3,0.6,8,1.8c1.8,1.2,2.6,2.8,2.6,4.9v0.5l6.4-30.3l19.5-2.6l-15.1,71c-0.4,1.4-0.5,2.8-0.5,4.2c0,1.8,0.4,3,1.2,3.7
		s2.2,1.1,4.1,1.1c2.5,0,4.6-1.1,6.4-3.2L1023.2,433.8L1023.2,433.8z M905.4,442.1c-1,1-1.9,1.9-3,2.6c-4.8,3.4-9.6,5.1-14.4,5.1
		c-3.7,0-6.6-1-8.9-3.1c-2.2-2.1-3.6-5.1-4-9c-2.5,3.6-5.4,6.5-8.5,8.7s-6.8,3.4-11.1,3.4c-5,0-9.2-1.7-12.5-5.1
		c-2.5-2.5-4-6.1-4.7-10.8c-8.6,10.6-18.7,15.9-30.3,15.9c-6.5,0-11.5-1.7-15.1-5.1s-5.4-8.7-5.4-15.8c0-6,1.2-12.7,3.6-20
		c2.4-7.3,6.3-13.6,11.6-18.9s12-8,20.2-8c5.3,0,9,1.1,11.2,3.4s3.4,5.2,3.4,8.7c0,3.1-0.7,5.4-2,7.1s-3,2.5-5,2.5
		c-1.5,0-3-0.5-4.6-1.6c1.1-2.9,1.6-5.5,1.6-7.8c0-1.7-0.3-3-0.9-3.9s-1.5-1.4-2.8-1.4c-2.6,0-5.3,2.2-7.9,6.4
		c-2.6,4.3-4.8,9.5-6.4,15.7c-1.7,6.1-2.5,11.7-2.5,16.6c0,4.3,0.7,7.2,2.2,8.7s3.9,2.3,7.2,2.3c4.7,0,8.8-1.1,12.2-3.3
		c2.9-1.9,6-4.6,9.4-8.2c0.2-6.1,1.5-12.5,3.9-19.1c2.6-7.1,6.4-13.2,11.6-18.1c5.1-5,11.2-7.4,18.3-7.4c3.6,0,6.3,0.6,8,1.8
		c1.8,1.2,2.6,2.8,2.6,4.9v0.9l1.4-7h18.9l-9.5,44.7c-0.4,1.4-0.5,2.8-0.5,4.2c0,3.8,1.8,5.7,5.4,5.7c2.5,0,4.6-1.1,6.4-3.4
		c1.8-2.3,3.2-5.2,4.2-8.9l9-42.3h18.9l-1.7,8.2c3-2.6,5.7-4.6,8.1-6.1c2.4-1.4,5.1-2.1,7.8-2.1c2.8,0,5,1,6.6,2.9s2.4,4.3,2.4,7
		c0,2.5-0.9,4.9-2.5,6.7c-1.7,1.9-4,2.9-7,2.9c-1.9,0-3.2-0.5-3.9-1.4s-1.2-2.3-1.5-4c-0.3-1.1-0.5-2-0.8-2.5s-0.7-0.8-1.4-0.8
		c-1.8,0-3.4,0.4-4.7,1.1s-2.9,2-4.9,3.9l-10.5,50h-18.9L905.4,442.1L905.4,442.1z M702.4,438.1c-2,2.8-4.1,5-6.4,6.6
		c-5.1,3.4-10.1,5.1-15.1,5.1c-4.2,0-7.6-1.3-10.2-3.9c-1.8-1.8-3-4.3-3.5-7.5c-1.9,2.7-4,4.8-6.3,6.4c-5.1,3.4-10.1,5.1-15.1,5.1
		c-4.2,0-7.6-1.3-10.2-3.9c-2.6-2.6-3.9-6.6-3.9-11.8c0-2.2,0.4-5,1.1-8.5l8.9-42.2h18.9l-9.5,44.7c-0.4,1.4-0.5,2.8-0.5,4.2
		c0,1.8,0.4,3,1.3,3.7s2.2,1.1,4.1,1.1c2.5,0,4.9-1.1,7.1-3.2c2.2-2.1,3.8-4.9,4.7-8.4l14.1-65.9l19.5-2.6l-15.1,71
		c-0.4,1.4-0.5,2.8-0.5,4.2c0,1.8,0.4,3,1.3,3.7c0.8,0.7,2.2,1.1,4.1,1.1c2.5,0,4.9-1.1,7.1-3.2c1.2-1.1,2.1-2.4,2.9-3.8
		c0-0.4,0-0.7,0-1.1c0-6,1.2-12.7,3.6-20s6.2-13.6,11.6-18.9c5.3-5.3,12.1-8,20.4-8c9.6,0,14.5,4.2,14.5,12.6
		c0,4.9-1.4,9.4-4.2,13.5s-6.5,7.4-11.2,9.9c-4.6,2.5-9.7,3.9-14.9,4.3c-0.2,1.9-0.3,3.2-0.3,3.9c0,7.3,2.7,10.9,8.2,10.9
		c2.5,0,5.1-0.7,7.9-2c2.8-1.3,5.3-3,7.6-5c-2.4,13-9.9,19.5-22.8,19.5c-6.4,0-11.4-1.7-15-5.1C704.7,443,703.3,440.8,702.4,438.1
		L702.4,438.1z M603.1,400.7l4.6-22c2.4-10.9,6.3-18.3,11.8-22.3s11.8-6,18.9-6c6.6,0,12.1,1.1,16.7,3.3c4.6,2.2,6.8,6.1,6.8,11.8
		c0,3.7-1,6.4-3,8.1s-4.5,2.6-7.4,2.6c-2.3,0-4.2-0.5-5.7-1.6s-2.2-2.9-2.2-5.5c0-1.7,0.4-3.2,1.3-4.5c0.8-1.3,1.9-2,3.2-2
		c0.6,0,1,0,1.1,0.1c-0.1-1.8-0.8-3.1-2-3.9c-1.3-0.9-3-1.3-5.2-1.3c-3.9,0-6.9,1.4-9.3,4.2c-2.3,2.8-3.9,6.4-4.7,10.7l-2.2,10.8
		h10.5l-1.1,5.3h-10.5l-15,71c-1.8,8.2-4.8,14-9.1,17.4c-4.3,3.3-9,5-14.1,5c-4.8,0-8.7-1.3-11.8-4c-3-2.7-4.5-6.2-4.5-10.7
		c0-3.7,1.1-6.7,3.2-9.1c2.1-2.4,4.7-4.3,7.8-5.7c3.1-1.4,7-2.9,11.8-4.5l8.7-41.1c-3.6,1.5-7.4,2.5-11.3,3.1
		c-0.7,8-2.5,14.9-5.4,20.9s-6.6,10.6-11.2,13.8c-4.6,3.2-9.5,4.9-14.9,4.9c-6.5,0-11.6-1.7-15.4-5c-3.8-3.3-5.7-8.6-5.7-15.8
		c0-6,1.2-12.6,3.7-19.9s6.4-13.6,11.8-18.9c5.4-5.3,12.3-8,20.5-8c11.2,0,16.8,7,16.8,21v0.1c0.3,0.1,0.7,0.1,1.4,0.1
		c2.9,0,6.2-0.8,10-2.3L603.1,400.7L603.1,400.7z M438.9,378.4h18.9l-2.1,9.9c4.4-3.8,9.5-5.7,15.4-5.7c4.9,0,8.8,1.6,11.7,4.9
		c2.9,3.2,4.3,8.5,4.3,15.9c0,6.9-1,13.9-3,21s-5.4,13.1-10.3,18c-4.8,5-11.2,7.4-19.1,7.4c-5.6,0-9.3-1.6-11.2-4.7l-6.8,32.1
		l-19.9,4.7L438.9,378.4L438.9,378.4z M499.4,383.2h18.9l-1.7,8.2c3-2.6,5.7-4.6,8.1-6.1c2.4-1.4,5.1-2.1,7.8-2.1c2.8,0,5,1,6.6,2.9
		s2.4,4.3,2.4,7c0,2.5-0.9,4.9-2.5,6.7c-1.7,1.9-4,2.9-7,2.9c-1.9,0-3.2-0.5-3.9-1.4s-1.2-2.3-1.5-4c-0.3-1.1-0.5-2-0.8-2.5
		s-0.7-0.8-1.4-0.8c-1.8,0-3.4,0.4-4.7,1.1s-2.9,2-4.9,3.9l-10.5,50h-18.9L499.4,383.2L499.4,383.2z M756,409.4h26.3l-2.2,10.4
		h-26.4L756,409.4z M450.7,438.3c4.2,0,7.7-2,10.5-5.9s4.8-8.7,6.1-14.1c1.3-5.5,1.9-10.6,1.9-15.3c0-7.3-2.2-10.9-6.6-10.9
		c-1.6,0-3.2,0.6-4.8,1.7c-1.6,1.1-3,2.7-4.3,4.7l-7.8,36.8C446.4,437.3,448.1,438.3,450.7,438.3z M564.3,437.7
		c2.1,0,4.2-1.2,6.3-3.6s3.9-5.7,5.5-9.9c1.6-4.2,2.7-8.8,3.4-13.9c-2.4-0.5-3.5-2.4-3.5-5.5c0-3.6,1.4-6,4.1-7.1
		c-0.2-2.9-0.6-4.9-1.3-6s-1.9-1.6-3.7-1.6c-2.9,0-5.7,2.1-8.4,6.3c-2.7,4.2-4.9,9.3-6.6,15.1c-1.7,5.9-2.5,11-2.5,15.5
		c0,4.2,0.5,7,1.4,8.5C560,437,561.8,437.7,564.3,437.7z M583,470.2c1.5,0,3-0.8,4.4-2.5s2.5-4.3,3.2-7.8l1.6-7.6
		c-4.5,1.4-8,3.2-10.7,5.3c-2.6,2.1-3.9,4.6-3.9,7.3c0,1.9,0.6,3.3,1.8,4.1C580.7,469.8,581.9,470.2,583,470.2L583,470.2z
		 M721.8,416.1c3.3-0.1,6.5-1.2,9.4-3.3c2.9-2.1,5.3-4.8,7.1-8.1c1.8-3.3,2.7-6.7,2.7-10.3c0-3.6-1.1-5.4-3.3-5.4
		c-3.1,0-6.1,2.8-9.1,8.3C725.5,402.9,723.3,409.2,721.8,416.1L721.8,416.1z M864.1,437c2.2,0,4.4-1,6.5-3.1
		c2.2-2.1,3.6-4.9,4.4-8.5l6.3-29.7c0-1.1-0.4-2.3-1.3-3.4c-0.9-1.1-2.2-1.6-4.1-1.6c-3.5,0-6.7,2-9.5,6.1s-5,9-6.6,14.7
		s-2.4,10.8-2.4,15.2s0.6,7.2,1.9,8.4C860.7,436.4,862.2,437,864.1,437L864.1,437z M982.7,437c2.1,0,4.2-1,6.4-2.9
		c2.1-1.9,3.6-4.6,4.4-8v-0.7l6.4-30.1c-0.8-3.1-2.6-4.6-5.4-4.6c-3.5,0-6.7,2-9.5,6.1s-5,9-6.6,14.7s-2.4,10.8-2.4,15.2
		s0.6,7.2,1.9,8.4C979.3,436.4,980.8,437,982.7,437L982.7,437z M1038.2,439.4c3.2,0,6-1,8.2-2.9s3.3-5,3.3-9.3c0-2.6-0.3-6.3-0.8-11
		c-0.9-10-1.4-16.7-1.7-20.1c-2.1,6.9-5.7,15.2-10.7,24.9c2,1.1,3,2.6,3,4.6c0,1.7-0.5,3.2-1.6,4.5s-2.5,2-4.1,2
		c-1.8,0-3-0.6-3.6-1.7c0,3.2,0.6,5.5,1.9,7C1033.3,438.6,1035.4,439.4,1038.2,439.4z M821.2,326.8c-1.7,2.7-3.5,4.8-5.4,6.2
		c-4.3,3.3-8.7,4.9-13.2,4.9c-5.3,0-9.3-1.4-11.8-4.3c-2.5-2.8-3.7-6.4-3.7-10.6c0-1.8,0.2-3.9,0.7-6.2c0.4-2.3,0.9-4.6,1.4-6.8
		c0.5-2.2,0.8-3.6,1-4.2c0.7-3.1,1.4-6.1,2-9.1s0.9-5.4,0.9-7.2c0-4.5-1.6-6.7-4.7-6.7c-2.3,0-4.3,1.1-6.1,3.4s-3.2,5.2-4.2,8.7
		l-8.9,42.2h-18.9l9.6-45.4c0.3-1.1,0.4-2.2,0.4-3.3c0-3.9-1.3-5.8-3.9-5.8c-2.5,0-4.6,1.1-6.4,3.4c-1.8,2.2-3.2,5.2-4.3,8.9
		l-8.9,42.2h-18.9l8.9-42.1c-3.6,1.4-7.3,2.4-11,3c-0.7,8-2.5,15-5.4,20.9c-2.9,6-6.6,10.6-11.2,13.8c-4.6,3.2-9.5,4.9-14.9,4.9
		c-6.5,0-11.6-1.7-15.4-5c-3-2.7-4.9-6.6-5.4-11.9c-4,3.5-8.3,6.6-13,9.2c-2.5,2.7-5.7,4.7-9.4,6s-7.5,1.9-11.2,1.9
		c-4.2,0-7.8-0.8-10.7-2.4s-5-3.7-6.4-6.3c-0.8-1.4-1.3-2.8-1.7-4.4c-8.1,8.7-17.4,13.1-27.9,13.1c-6.5,0-11.5-1.7-15.1-5.1
		s-5.4-8.7-5.4-15.8c0-6.1,1.2-12.7,3.6-20c2.4-7.3,6.2-13.6,11.6-18.9c5.3-5.3,12.1-8,20.4-8c9.6,0,14.5,4.2,14.5,12.6
		c0,4.9-1.4,9.4-4.2,13.5s-6.5,7.4-11.2,9.9c-4.6,2.5-9.7,3.9-14.9,4.3c-0.2,2.6-0.3,4.4-0.3,5.3c0,4.3,0.7,7.2,2.2,8.7
		s3.9,2.3,7.2,2.3c4.7,0,8.8-1.1,12.2-3.3c2.3-1.5,4.7-3.5,7.3-6c0.3-1.4,0.9-2.8,1.7-4.1c1.4-2.2,3-3.7,4.9-4.7
		c3.4-6,6.3-12.2,8.9-18.6c2.7-6.7,5.1-13.5,7.2-20.3l19.5-2.6c0.4,11.2,1.2,23.4,2.2,36.4c0.4,5.3,0.7,9.1,0.7,11.4
		c0,2-0.2,3.7-0.5,5c3.1-1.8,5.7-3.5,7.7-5c0.2-5.5,1.4-11.5,3.6-18.1c2.5-7.3,6.4-13.6,11.8-18.9c5.4-5.3,12.3-8,20.5-8
		c11.2,0,16.8,7,16.8,21v0.1c0.3,0.1,0.7,0.1,1.4,0.1c2.9,0,6.2-0.8,10-2.3l0.5-0.2l3.7-17.6h18.9l-1.4,6.8c4.5-5,9.8-7.5,16-7.5
		c7.7,0,12.2,3.8,13.5,11.3c4.8-7.5,10.9-11.2,18.3-11.2c4.5,0,8,1.2,10.7,3.7c2.6,2.5,3.9,6.2,3.9,11.2c0,2.5-0.3,5.4-0.9,8.5
		c-0.8,3.8-1.7,7.6-2.6,11.4c-0.7,2.6-1.3,5.3-1.9,8c-0.6,2.6-0.9,4.6-0.9,6.1c0,1.8,0.4,3.1,1.2,4.1s2.1,1.4,4.1,1.4
		c2.6,0,4.7-0.9,6.3-2.8c1-1.2,1.9-2.7,2.9-4.6c0-0.2,0-0.5,0-0.7c0-6.1,1.2-12.7,3.6-20c2.4-7.3,6.2-13.6,11.6-18.9
		c5.3-5.3,12.1-8,20.4-8c9.6,0,14.5,4.2,14.5,12.6c0,4.9-1.4,9.4-4.2,13.5s-6.5,7.4-11.2,9.9c-4.6,2.5-9.7,3.9-14.9,4.3
		c-0.2,1.9-0.3,3.2-0.3,3.9c0,7.3,2.7,10.9,8.2,10.9c2.5,0,5.1-0.7,7.9-2c2.8-1.3,5.3-3,7.6-5c-2.4,13-10,19.5-22.8,19.5
		c-6.4,0-11.4-1.7-15-5.1C823.4,331.3,822.1,329.3,821.2,326.8L821.2,326.8z M418.1,352.2c-3.2,0-6.1-0.3-8.5-0.8
		c-2.5-0.5-4.6-1.8-6.4-3.8s-2.7-5.1-2.7-9.3c0-5.9,1.8-13.8,5.3-23.7c3.6-9.9,8.2-19.9,14-29.9c-4.4,0.3-7.8,0.9-10.4,2
		c-2.5,1.1-4.2,2.7-5,4.9c0.3,0,0.7,0.4,1.1,1.3s0.6,1.8,0.6,2.8c0,1.6-0.7,2.8-2.1,3.7c-1.4,0.9-3.2,1.4-5.3,1.4
		c-2.5,0-4.4-0.7-5.9-2s-2.2-3.2-2.2-5.7c0-3,1.2-5.7,3.5-8.2s5.5-4.4,9.7-5.9c4.1-1.4,8.7-2.2,13.7-2.2c1.8,0,4.1,0.1,6.8,0.4
		c7.2-11.4,14.8-20.7,22.8-27.9s15.7-10.8,22.9-10.8c4.2,0,7.7,0.6,10.4,1.8l-20.6,96.8h-18.9l10.1-47.7c-3.2-1.5-6.2-2.6-8.9-3.3
		c-2.8-0.7-5.8-1.2-8.7-1.4c-5,10.7-9.1,21.7-12.3,33.1c-3.2,11.3-4.8,20.3-4.8,27C416.2,348.2,416.9,350.6,418.1,352.2L418.1,352.2
		z M490.3,338c-4.2,0-7.6-1.3-10.2-3.9s-3.9-6.6-3.9-11.8c0-2.2,0.4-5,1.1-8.5l8.9-42.2h18.9l-9.5,44.7c-0.3,1.1-0.4,2.2-0.4,3.3
		c0,3.9,1.3,5.8,3.9,5.8c2.5,0,4.6-1,6.3-3.1c1.8-2.1,3.2-4.9,4.2-8.5l8.9-42.2h18.9l-9.5,44.7c-0.4,2.2-0.7,3.8-0.7,4.7
		c0,2.9,1.5,4.3,4.5,4.3c4,0,7.8-2.5,11.2-7.6c3.5-5.1,6.2-11.1,8.4-18.1c2.1-7,3.2-13.1,3.2-18.1c-0.2,0.4-0.7,0.8-1.7,1
		c-0.8,0.2-1.7,0.3-2.5,0.3c-1.5,0-2.7-0.7-3.5-2.1s-1.3-3-1.2-4.6c0-2.1,0.7-3.8,2-5.1c1.4-1.3,3.4-2,6.1-2c2.9,0,5,1.1,6.3,3.2
		s2,4.9,2,8.2c0,7.9-1.4,16.3-4.1,25.3c-2.7,9-6.9,16.6-12.5,22.9s-12.6,9.5-20.9,9.5c-4.3,0-7.8-0.9-10.5-2.8
		c-2.7-1.8-4.5-4.6-5.3-8.3C504.1,334.3,497.8,338,490.3,338L490.3,338z M459.8,247.9c-3.8,2-7.7,5.8-11.8,11.2
		c-4.1,5.5-8,12.1-11.9,19.9c6.3,1.2,11.7,2.8,16,4.6L459.8,247.9L459.8,247.9z M583.3,304.3c3.2-0.2,6.3-1.3,9.3-3.4
		c2.9-2.1,5.4-4.9,7.1-8c1.8-3.2,2.7-6.7,2.7-10.3c0-3.6-1.1-5.4-3.3-5.4c-3.2,0-6.2,2.8-9.3,8.3C586.8,291,584.6,297.3,583.3,304.3
		L583.3,304.3z M625.5,327.6c3.2,0,6-1,8.2-2.9s3.3-5,3.3-9.3c0-2.6-0.3-6.3-0.8-11c-0.9-10-1.4-16.7-1.7-20.1
		c-2.1,6.9-5.7,15.2-10.7,24.9c2,1.1,3,2.6,3,4.6c0,1.7-0.5,3.2-1.6,4.5s-2.5,2-4.1,2c-1.8,0-3-0.6-3.6-1.7c0,3.2,0.6,5.5,1.9,7
		C620.6,326.9,622.7,327.6,625.5,327.6L625.5,327.6z M689.4,325.9c2.1,0,4.2-1.2,6.3-3.6s3.9-5.7,5.5-9.9c1.6-4.2,2.7-8.8,3.4-13.9
		c-2.4-0.5-3.5-2.4-3.5-5.5c0-3.6,1.4-6,4.1-7.1c-0.2-2.9-0.6-4.9-1.3-6s-1.9-1.6-3.7-1.6c-2.9,0-5.7,2.1-8.4,6.3
		c-2.7,4.2-4.9,9.3-6.6,15.1c-1.7,5.9-2.5,11-2.5,15.5c0,4.2,0.5,7,1.4,8.5C685.1,325.2,686.9,325.9,689.4,325.9L689.4,325.9z
		 M840.4,304.3c3.3-0.1,6.5-1.2,9.4-3.3c2.9-2.1,5.3-4.8,7.1-8.1c1.8-3.3,2.7-6.7,2.7-10.3c0-3.6-1.1-5.4-3.3-5.4
		c-3.1,0-6.1,2.8-9.1,8.4C844.1,291.2,841.9,297.4,840.4,304.3L840.4,304.3z"/>
</g>
<g class="st1">
	<path class="st8" d="M427.4,179.2c0,3.1-1.2,4.6-3.5,4.6c-1.2,0-2.1-0.4-2.8-1.3c0.6-0.3,1.1-0.9,1.6-1.8c0.5-0.9,0.7-1.8,0.7-2.7
		c0-0.9-0.2-1.6-0.7-2.2c-0.5-0.6-1.2-0.9-2.2-0.9c-1,0-2,0.3-2.8,1c-0.9,0.7-1.7,1.6-2.5,2.8c-1.5,2.3-2.8,5.3-3.8,9
		c-1,3.6-1.5,7-1.5,9.9c0,3,0.4,5.1,1.3,6.4c0.9,1.3,2.4,2,4.5,2c4.2,0,7.5-1.7,10-5l1.1,0.5c-1.6,4-4.6,6.8-9.1,8.4
		c-1.8,0.6-3.5,0.9-5.2,0.9c0,0-0.1,0-0.1,0c-3.7,0-6.4-1-8.2-2.9c-1.7-1.9-2.6-4.9-2.6-9.1c0-4.2,0.7-8.4,2.1-12.5
		c1.6-4.9,4-8.6,7.1-11c2.4-1.9,5.2-2.8,8.3-2.8c3.9,0,6.4,1.2,7.7,3.6C427.2,177,427.4,178,427.4,179.2z"/>
	<path class="st8" d="M423.6,210l5.3-25h7.2l-0.6,3.1c0.8-0.7,1.7-1.4,2.7-2.1c1-0.7,2.1-1,3.2-1c1.2,0,2,0.4,2.6,1.1
		c0.6,0.8,0.9,1.5,0.9,2.2c0,1.2-0.3,2.2-1,2.9c-0.6,0.7-1.4,1.1-2.3,1.1c-0.9,0-1.5-0.2-1.8-0.6c-0.3-0.4-0.5-0.8-0.5-1.3
		c-0.1-0.4-0.2-0.8-0.3-1c-0.1-0.3-0.3-0.4-0.7-0.4c-0.7,0-1.3,0.2-1.8,0.5c-0.5,0.3-1.1,0.8-1.8,1.4l-4,19H423.6z"/>
	<path class="st8" d="M465.2,201c-3.7,6.2-8.3,9.3-13.7,9.3c-2.4,0-4.3-0.6-5.7-1.8c-1.4-1.2-2.1-3.3-2.1-6.1c0-3.8,1-7.5,2.9-11.1
		c1.5-2.7,3.5-4.7,6.1-5.8c1.3-0.6,2.7-0.9,4.1-0.9c2.3,0,3.9,0.4,4.7,1.3c0.8,0.9,1.2,2,1.2,3.5c0,2.8-1.1,5.3-3.4,7.3
		c-2.3,2-5,3.1-8.1,3.3c-0.1,0.9-0.1,1.6-0.1,2c0,1.7,0.3,2.8,0.9,3.4c0.6,0.5,1.4,0.8,2.5,0.8c1.9,0,3.5-0.4,4.8-1.3
		c1.3-0.9,2.7-2.1,4.2-3.8H465.2z M458.8,189c0-1.2-0.4-1.8-1.2-1.8c-1.2,0-2.4,1.1-3.5,3.2c-1.1,2.1-2,4.5-2.5,7.1
		c1.9-0.1,3.6-1,5.1-2.7C458.1,193.2,458.8,191.2,458.8,189z"/>
	<path class="st8" d="M491.9,201c-2.1,6.2-5.5,9.3-10,9.3c-2.9,0-4.6-1.5-4.9-4.6c-2.2,3.1-4.7,4.6-7.6,4.6s-4.9-1.4-5.9-4.3
		c-0.4-1-0.6-2.2-0.6-3.5c0-1.3,0.1-2.6,0.3-3.9c0.2-1.3,0.6-2.6,1-3.9c1-2.9,2.5-5.2,4.5-7.1c1.9-1.9,4.3-2.8,7-2.8
		c1.4,0,2.5,0.2,3.1,0.7c0.6,0.5,1,1.1,1,1.8v0.4l0.5-2.7h7.2l-3.6,17c-0.1,0.6-0.2,1.1-0.2,1.6c0,1.4,0.7,2.1,2.1,2.1
		c1.8,0,3.1-1.6,4.1-4.7H491.9z M479.3,189.8c0-0.3-0.1-0.7-0.4-1.2c-0.3-0.5-0.9-0.7-1.8-0.7s-1.8,0.5-2.7,1.5
		c-2.1,2.4-3.4,5.8-4,10.3c-0.1,0.7-0.1,1.4-0.1,2.2c0,1.5,0.3,2.5,0.9,3.1c0.4,0.4,0.8,0.5,1.3,0.5c1,0,1.9-0.4,2.7-1.2
		c0.8-0.8,1.4-1.9,1.7-3.2L479.3,189.8z"/>
	<path class="st8" d="M505.3,201c-2.1,6.2-5.7,9.3-10.8,9.3c-1.3,0-2.5-0.5-3.5-1.4c-1-0.9-1.5-2.5-1.5-4.6c0-0.9,0.1-2,0.4-3.3
		l3-14h-1.7l0.4-2h1.6l1.5-6.9l7.4-1l-1.7,7.9h3l-0.4,2h-3l-3.2,15c-0.1,0.6-0.2,1.2-0.2,1.8c0,1.1,0.7,1.7,2,1.7
		c1,0,1.9-0.4,2.7-1.3c0.8-0.8,1.4-1.9,1.8-3.1H505.3z"/>
	<path class="st8" d="M530.5,201c-2.1,6.2-5.5,9.3-10,9.3c-3,0-4.6-1.6-5-4.7c-2,3.2-4.4,4.7-7.4,4.7c-1.5,0-2.8-0.5-3.8-1.4
		c-1-0.9-1.5-2.5-1.5-4.6c0-0.9,0.1-2,0.4-3.3l3.4-16h7.2l-3.6,17c-0.1,0.5-0.1,1-0.1,1.4c0,1.4,0.5,2.1,1.5,2.1
		c1.8,0,3.1-1.5,4-4.4l3.4-16h7.2l-3.6,17c-0.1,0.6-0.2,1.2-0.2,1.8c0,1.1,0.7,1.7,2.1,1.7c1.9,0,3.2-1.5,4.1-4.4H530.5z"/>
	<path class="st8" d="M526.5,210l5.3-25h7.2l-0.6,3.1c0.8-0.7,1.7-1.4,2.7-2.1c1-0.7,2.1-1,3.2-1s2,0.4,2.6,1.1
		c0.6,0.8,0.9,1.5,0.9,2.2c0,1.2-0.3,2.2-1,2.9c-0.6,0.7-1.4,1.1-2.3,1.1c-0.9,0-1.5-0.2-1.8-0.6c-0.3-0.4-0.5-0.8-0.5-1.3
		c-0.1-0.4-0.2-0.8-0.3-1c-0.1-0.3-0.3-0.4-0.7-0.4c-0.7,0-1.3,0.2-1.8,0.5c-0.5,0.3-1.1,0.8-1.8,1.4l-4,19H526.5z"/>
	<path class="st8" d="M568.1,201c-3.7,6.2-8.3,9.3-13.7,9.3c-2.4,0-4.3-0.6-5.7-1.8c-1.4-1.2-2.1-3.3-2.1-6.1c0-3.8,1-7.5,2.9-11.1
		c1.5-2.7,3.5-4.7,6.1-5.8c1.3-0.6,2.7-0.9,4.1-0.9c2.3,0,3.9,0.4,4.7,1.3c0.8,0.9,1.2,2,1.2,3.5c0,2.8-1.1,5.3-3.4,7.3
		c-2.3,2-5,3.1-8.1,3.3c-0.1,0.9-0.1,1.6-0.1,2c0,1.7,0.3,2.8,0.9,3.4c0.6,0.5,1.4,0.8,2.5,0.8c1.9,0,3.5-0.4,4.8-1.3
		c1.3-0.9,2.7-2.1,4.2-3.8H568.1z M561.7,189c0-1.2-0.4-1.8-1.2-1.8c-1.2,0-2.4,1.1-3.5,3.2c-1.1,2.1-2,4.5-2.5,7.1
		c1.9-0.1,3.6-1,5.1-2.7S561.7,191.2,561.7,189z"/>
	<path class="st8" d="M581,183.5c0.1,3.1,0.3,5.7,0.4,7.8l0.6,7.9c0.1,0.8,0.1,1.7,0.1,2.6c0,1-0.2,1.9-0.5,2.7
		c-0.3,0.9-0.7,1.6-1.2,2.2c-1,1.2-2.2,2.1-3.7,2.6c-1.5,0.6-3,0.8-4.4,0.8c-2.5,0-4.3-0.6-5.6-1.9c-1.3-1.3-1.9-2.6-1.9-4.1
		c0-1.4,0.3-2.6,0.8-3.4c0.6-0.8,1.2-1.4,1.8-1.7c2.3-4.2,4.4-9.1,6.2-14.8L581,183.5z M570.1,206.3c3.2,0,4.8-1.5,4.8-4.6
		c0-0.9-0.1-1.9-0.2-3.1l-0.3-2.9c-0.2-1.8-0.3-3.8-0.5-5.9c-0.8,2.7-2.2,5.9-4.1,9.4c0.8,0.4,1.1,0.9,1.1,1.6
		c0,0.7-0.2,1.3-0.6,1.8c-0.4,0.5-0.9,0.8-1.6,0.8s-1.1-0.2-1.3-0.7C567.4,205.2,568.3,206.3,570.1,206.3z"/>
	<path class="st8" d="M621.1,191c-2,2.1-5,3.5-8.9,4.2c-0.4,4.6-1.7,8.2-3.9,10.9c-2.2,2.7-4.9,4.1-8,4.1c-3.8,0-6.3-1.4-7.4-4.2
		c-0.4-1-0.6-2.1-0.6-3.3c0-1.2,0.1-2.4,0.3-3.7c0.2-1.2,0.5-2.5,1-3.8c1-3,2.4-5.4,4.3-7.3c2.2-2.2,4.9-3.3,8.1-3.3
		c4.3,0,6.4,2.7,6.4,8v0c0.2,0,0.4,0,0.8,0c0.9,0,2-0.3,3.5-0.9c1.4-0.6,2.7-1.3,4-2.1L621.1,191z M608.1,195.3
		c-0.9-0.2-1.3-1-1.3-2.2c0-1.3,0.5-2.1,1.6-2.6c-0.1-1.1-0.2-1.8-0.5-2.2s-0.8-0.7-1.6-0.7c-1.5,0-3,1.7-4.4,5.1
		c-1.4,3.4-2.1,6.4-2.1,9c0,1.6,0.1,2.6,0.4,3.1c0.3,0.4,0.6,0.7,0.9,0.8c0.3,0.1,0.8,0.2,1.3,0.2c1.1,0,2.3-1,3.4-3
		S607.7,198.2,608.1,195.3z"/>
	<path class="st8" d="M631.7,180c0.1-0.5,0.1-1,0.1-1.5c0-0.5-0.2-0.9-0.6-1.1c-0.4-0.3-0.8-0.4-1.1-0.4c-0.8,0-1.6,0.3-2.2,0.9
		c-0.7,0.6-1.2,1.7-1.5,3.2l-0.9,4h3.7l-0.4,2h-3.7l-5.8,27c-1.1,5.7-4.1,8.5-8.9,8.5c-1.5,0-2.9-0.5-4.1-1.5
		c-1.2-1-1.8-2.2-1.8-3.6c0-1.4,0.2-2.4,0.7-3.2c0.5-0.8,1.1-1.5,1.9-2.1c1.1-0.8,3.2-1.6,6.1-2.5l6.1-28.6c1.2-5.7,4.2-8.5,9.1-8.5
		c1.5,0,2.9,0.5,4.1,1.5c1.2,1,1.8,2.3,1.8,3.9c0,0.8,0,1.4-0.1,2.1H631.7z M612.8,211.2c-1.8,0.6-3,1.2-3.7,1.7
		c-1.2,1-1.8,2.1-1.8,3.4c0,0.7,0.4,1.2,1.2,1.5c0.2,0.1,0.6,0.1,1,0.1s0.9-0.3,1.4-0.9c0.5-0.6,0.9-1.6,1.2-3.1L612.8,211.2z"/>
	<path class="st8" d="M660.2,176c-2.2,0.9-3.9,2.3-5.2,4.1c-1.3,1.8-1.9,4.1-1.9,6.8c0,1.3,0.2,2.3,0.6,3.1c0.1,0.1,0.1,0.2,0.1,0.3
		c-2.7,0-4.3-0.9-5-2.6c-0.2-0.6-0.4-1.4-0.4-2.3c0-1.7,0.5-3.3,1.6-4.8c1-1.6,2.4-2.9,4.1-4.1c3.8-2.7,7.8-4,11.9-4h2l-7.5,35.5
		c-0.9,4.1-2.3,7.1-4.3,9.2c-2,2.1-4.9,3.1-8.8,3.1c-2.4,0-4.2-0.7-5.5-2c-1.3-1.3-1.9-2.9-1.9-4.9c0-1.9,0.5-3.6,1.6-4.9
		c1.1-1.3,2.5-2,4.1-2s2.8,0.1,3.4,0.4c1.3,0.6,1.9,1.5,1.9,2.9c0,0.6-0.1,1.3-0.3,2c-0.9-0.7-1.6-1.2-2-1.2c-0.4-0.1-0.7-0.1-1-0.1
		c-1.2,0-2,0.4-2.6,1.1c-0.6,0.8-0.9,1.5-0.9,2.3c0,1.3,0.3,2.3,1,2.9c0.7,0.6,1.4,0.9,2.1,0.9c1.4,0,2.4-0.4,3.1-1.2
		c0.7-0.8,1.3-2.5,1.9-4.9L660.2,176z"/>
	<path class="st8" d="M686.8,182.5c1.5-0.9,2.2-2.4,2.2-4.6c0-0.7-0.3-1.3-0.8-2s-1.5-1-2.9-1s-2.5,0.4-3.4,1.1
		c-0.8,0.8-1.2,1.7-1.2,3s0.2,2.2,0.5,2.9c0.6,1.4,1.6,2.7,3.1,4l2.1,1.9c1.8,1.6,3.1,3,3.7,4.1c1.3,2.2,1.9,4.4,1.9,6.6
		c0,4.2-1.4,7.4-4.3,9.6c-2.6,2.1-5.8,3.1-9.8,3.1c-4.9,0-8.1-1.6-9.7-4.7c-0.6-1.1-0.9-2.4-0.9-3.8c0-2.6,0.7-4.7,2.2-6.1
		c1.5-1.5,3.2-2.2,5-2.2s3.2,0.6,4,1.7c0.3,0.4,0.5,1,0.5,1.6c-2.6,0-4.3,0.8-5.3,2.5c-0.4,0.6-0.5,1.3-0.5,2c0,1.4,0.4,2.6,1.3,3.5
		c0.8,0.9,2.1,1.4,3.7,1.4s3-0.6,4-1.7c1.1-1.2,1.6-2.6,1.6-4.4c0-1.8-0.3-3.2-0.8-4.4c-0.5-1.1-1.1-2.2-1.9-3.2
		c-0.8-1-1.6-1.9-2.5-2.8c-0.9-0.9-1.7-1.8-2.5-2.7c-1.8-2.1-2.7-4.2-2.7-6.3c0-2.6,1.1-4.7,3.3-6.4c2.2-1.7,5-2.6,8.2-2.6
		c4,0,6.6,1.2,7.6,3.7c0.3,0.7,0.4,1.6,0.4,2.8c0,1.2-0.4,2.3-1.1,3.2c-0.7,0.9-1.6,1.4-2.7,1.4S687.4,183.2,686.8,182.5z"/>
	<path class="st8" d="M710.9,208.5l-2.6,12.2l-7.5,1.8l8.3-39.4h7.2l-0.8,3.8c1.7-1.4,3.6-2.1,5.8-2.1c2.9,0,4.8,1.4,5.6,4.2
		c0.3,1,0.5,2.2,0.5,3.5c0,1.3-0.1,2.6-0.2,3.9c-0.2,1.3-0.4,2.6-0.8,3.9c-0.4,1.3-0.9,2.6-1.5,3.8c-0.6,1.2-1.4,2.3-2.3,3.2
		c-0.9,0.9-2,1.7-3.2,2.2c-1.2,0.6-2.8,0.8-4.7,0.8C712.9,210.3,711.6,209.7,710.9,208.5z M720.6,192.5c0-2.8-0.8-4.2-2.5-4.2
		c-0.6,0-1.2,0.2-1.8,0.6c-0.6,0.4-1.2,1-1.6,1.9l-3,14c0.3,0.8,1,1.1,2.1,1.1c1.1,0,2.1-0.5,3-1.4c1.7-1.9,2.9-4.5,3.4-8
		C720.5,195,720.6,193.7,720.6,192.5z"/>
	<path class="st8" d="M726.8,210l5.3-25h7.2l-0.6,3.1c0.8-0.7,1.7-1.4,2.7-2.1c1-0.7,2.1-1,3.2-1c1.2,0,2,0.4,2.6,1.1
		c0.6,0.8,0.9,1.5,0.9,2.2c0,1.2-0.3,2.2-1,2.9c-0.6,0.7-1.4,1.1-2.3,1.1c-0.9,0-1.5-0.2-1.8-0.6c-0.3-0.4-0.5-0.8-0.5-1.3
		c-0.1-0.4-0.2-0.8-0.3-1c-0.1-0.3-0.3-0.4-0.7-0.4c-0.7,0-1.3,0.2-1.8,0.5c-0.5,0.3-1.1,0.8-1.8,1.4l-4,19H726.8z"/>
	<path class="st8" d="M768.4,201c-3.7,6.2-8.3,9.3-13.7,9.3c-2.4,0-4.3-0.6-5.7-1.8c-1.4-1.2-2.1-3.3-2.1-6.1c0-3.8,1-7.5,2.9-11.1
		c1.5-2.7,3.5-4.7,6.1-5.8c1.3-0.6,2.7-0.9,4.1-0.9c2.3,0,3.9,0.4,4.7,1.3c0.8,0.9,1.2,2,1.2,3.5c0,2.8-1.1,5.3-3.4,7.3
		c-2.3,2-5,3.1-8.1,3.3c-0.1,0.9-0.1,1.6-0.1,2c0,1.7,0.3,2.8,0.9,3.4c0.6,0.5,1.4,0.8,2.5,0.8c1.9,0,3.5-0.4,4.8-1.3
		c1.3-0.9,2.7-2.1,4.2-3.8H768.4z M762,189c0-1.2-0.4-1.8-1.2-1.8c-1.2,0-2.4,1.1-3.5,3.2c-1.1,2.1-2,4.5-2.5,7.1
		c1.9-0.1,3.6-1,5.1-2.7C761.3,193.2,762,191.2,762,189z"/>
	<path class="st8" d="M787.9,201c-2.1,2.4-4.6,4.5-7.6,6.3c-1.9,2-4.5,3-7.9,3c-2.3,0-4.1-0.6-5.4-1.9c-1.3-1.3-1.9-2.6-1.9-4.1
		c0-1.4,0.3-2.6,0.8-3.4c0.6-0.8,1.2-1.4,1.8-1.7c2.3-4.2,4.4-9.1,6.2-14.8l7.4-1c0.1,3.1,0.3,5.7,0.4,7.8l0.6,7.9
		c0.1,0.8,0.1,1.6,0.1,2.3c0,0.8-0.1,1.4-0.2,2c1.5-0.8,2.7-1.7,3.6-2.5H787.9z M770.3,206.3c3.2,0,4.8-1.5,4.8-4.6
		c0-0.9-0.1-1.9-0.2-3.1l-0.3-2.9c-0.2-1.8-0.3-3.8-0.5-5.9c-0.8,2.7-2.2,5.9-4.1,9.4c0.8,0.4,1.1,0.9,1.1,1.6
		c0,0.7-0.2,1.3-0.6,1.8c-0.4,0.5-0.9,0.8-1.6,0.8c-0.7,0-1.1-0.2-1.3-0.7C767.7,205.2,768.6,206.3,770.3,206.3z"/>
	<path class="st8" d="M806.7,201c-3.7,6.2-8.3,9.3-13.7,9.3c-2.4,0-4.3-0.6-5.7-1.8c-1.4-1.2-2.1-3.3-2.1-6.1c0-3.8,1-7.5,2.9-11.1
		c1.5-2.7,3.5-4.7,6.1-5.8c1.3-0.6,2.7-0.9,4.1-0.9c2.3,0,3.9,0.4,4.7,1.3c0.8,0.9,1.2,2,1.2,3.5c0,2.8-1.1,5.3-3.4,7.3
		c-2.3,2-5,3.1-8.1,3.3c-0.1,0.9-0.1,1.6-0.1,2c0,1.7,0.3,2.8,0.9,3.4c0.6,0.5,1.4,0.8,2.5,0.8c1.9,0,3.5-0.4,4.8-1.3
		c1.3-0.9,2.7-2.1,4.2-3.8H806.7z M800.3,189c0-1.2-0.4-1.8-1.2-1.8c-1.2,0-2.4,1.1-3.5,3.2c-1.1,2.1-2,4.5-2.5,7.1
		c1.9-0.1,3.6-1,5.1-2.7C799.5,193.2,800.3,191.2,800.3,189z"/>
	<path class="st8" d="M824,203.3c0,1.4,0.6,2.1,1.8,2.1c1.1,0,2-0.4,2.6-1.1c0.6-0.7,1.2-1.8,1.8-3.3h2.1c-1.9,5.6-4.6,8.7-7.9,9.2
		c-0.5,0.1-1.2,0.1-1.9,0.1c-0.8,0-1.5-0.2-2.3-0.5c-2.1-0.9-3.1-2.6-3.1-5.2c0-1.4,0.4-3.5,1.1-6.5c0.7-3,1.1-5.1,1.1-6.2
		c0-1.7-0.6-2.6-1.8-2.6c-1.2,0-2.3,1-3.2,2.9c-0.3,0.5-0.5,1.1-0.7,1.8l-3.4,16h-7.2l5.3-25h7.2l-0.5,2.6c1.6-1.9,3.6-2.8,5.8-2.8
		c1.6,0,2.9,0.4,4,1.3c1.1,0.9,1.6,2.2,1.6,3.9c0,1.7-0.3,3.7-0.8,5.9l-1.2,4.8C824.1,201.8,824,202.6,824,203.3z"/>
	<path class="st8" d="M833.4,187h-1.7l0.4-2h1.6l1.5-6.9l7.4-1L841,185h3l-0.4,2h-3l-3.2,15c-0.2,0.6-0.2,1.2-0.2,1.8s0.1,1,0.4,1.3
		c0.2,0.3,0.7,0.5,1.3,0.5c0.6,0,1.1,0,1.4-0.1c-1,2.8-2.3,4.3-4,4.7c-0.5,0.1-0.9,0.1-1.3,0.1c-1.8,0-3.1-0.5-3.8-1.6
		c-0.8-1.1-1.2-2.2-1.2-3.5c0-1.2,0.1-2.3,0.3-3.2L833.4,187z"/>
	<path class="st8" d="M854,203.3c0,1.1-0.4,2-1.2,2.8c-0.8,0.8-1.7,1.1-2.8,1.1c-1.1,0-2-0.4-2.8-1.1c-0.8-0.8-1.1-1.7-1.1-2.8
		c0-1.1,0.4-2,1.1-2.8c0.8-0.8,1.7-1.2,2.8-1.2c1.1,0,2.1,0.4,2.8,1.2C853.6,201.2,854,202.2,854,203.3z M855.3,188.4
		c0.8,0.8,1.2,1.7,1.2,2.8c0,1.1-0.4,2.1-1.2,2.8c-0.8,0.8-1.7,1.1-2.8,1.1c-1.1,0-2-0.4-2.8-1.1c-0.8-0.8-1.1-1.7-1.1-2.8
		c0-1.1,0.4-2,1.1-2.8c0.8-0.8,1.7-1.2,2.8-1.2C853.6,187.2,854.5,187.6,855.3,188.4z"/>
</g>
</svg>
