<?xml version="1.0" encoding="utf-8"?>
<!-- Generator: Adobe Illustrator 21.0.0, SVG Export Plug-In . SVG Version: 6.00 Build 0)  -->
<svg version="1.1" id="Layer_1" xmlns="http://www.w3.org/2000/svg" xmlns:xlink="http://www.w3.org/1999/xlink" x="0px" y="0px"
	 viewBox="0 0 1141 459" style="enable-background:new 0 0 1141 459;" xml:space="preserve">
<style type="text/css">
	.st0{fill:#C9DAEA;}
	.st1{fill:#A6D6AD;stroke:#134E4F;stroke-width:10;stroke-linecap:round;stroke-linejoin:round;stroke-miterlimit:10;}
	.st2{fill:#3F3B3C;}
	.st3{fill:#FFFFFF;}
	.st4{fill:#E0A080;}
	.st5{fill:#A6D6AD;}
	.st6{fill:#E17331;}
	.st7{fill:#134E4F;}
</style>
<g>
	<path class="st0" d="M278.1,293.8v0.5c-15.5-15.6-9.8-27.6-3.8-34.2c2.3-1.7,4.3-3.5,6.5-5.4l0,0l0,0c26.5-23.6,43-56.4,43-92.7
		c0-71.9-64.7-130.2-144.4-130.2S35,90.1,35,162c0,36.3,16.5,69.1,43,92.7l0,0l0,0c1.8,1.5,3.6,3.1,5.4,4.6
		c5.9,6.3,12.5,18.6-3.3,34.7v-0.3c0,0-63,20.4-55.2,61.2c12.1-8,22.7-13.5,31.3-17.2c-3.4,9.7-1.6,22.2,10.9,37.9
		c7.2-3.3,13.7-6.3,19.4-9.1c0.1,19.8,8.2,37.9,21.3,50.9c-1,3.7-1.2,7.6-0.4,11.8c2.2,11.5,11.9,20.3,23.5,21.4
		c10.4,1,19.7-4.1,24.9-12c1,0,2,0.1,3.1,0.1h40.9c1,0,2.1,0,3.1-0.1c5.2,8,14.5,13,24.9,12c11.6-1.1,21.3-10,23.5-21.4
		c0.8-4.2,0.5-8.1-0.4-11.8c13-13,21.1-31,21.3-50.7c5.5,2.8,11.9,5.8,18.9,9c12.5-15.8,14.2-28.3,10.9-37.9
		c8.6,3.7,19.1,9.1,31.3,17.2C341.1,314.2,278.1,293.8,278.1,293.8z M276.7,313.8c-1.7-0.8-3.3-1.4-4.6-2c-0.2-2.8-0.5-5.6-1-8.4
		c2,0.5,4.1,1,6.3,1.4L276.7,313.8z M87.7,303.5c-0.5,2.7-0.8,5.4-0.9,8.2c-1.4,0.5-3.2,1.3-5.1,2.2l-0.6-8.8
		C83.3,304.5,85.6,304.1,87.7,303.5z"/>
	<path class="st1" d="M73.4,280c0,0-63,20.4-55.2,61.2c36-23.6,57.7-25.1,57.7-25.1"/>
	<path class="st1" d="M84.7,296.1c0,0-62.5,17.8-24.4,65.9c58-26.2,61.1-37.5,61.1-37.5"/>
	<path class="st1" d="M271.1,280c0,0,63,20.4,55.2,61.2c-36.1-23.6-57.7-25.1-57.7-25.1"/>
	<path class="st1" d="M259.8,296.1c0,0,62.5,17.8,24.4,65.9c-58-26.2-61.1-37.5-61.1-37.5"/>
	<path class="st1" d="M193,424.9H152c-39.8,0-72.3-32.5-72.3-72.3v-50.7c0-39.8,32.5-72.3,72.3-72.3H193c39.8,0,72.3,32.5,72.3,72.3
		v50.7C265.3,392.4,232.7,424.9,193,424.9z"/>
	<ellipse class="st1" cx="172.5" cy="148.2" rx="144.4" ry="130.2"/>
	<g>
		<path class="st1" d="M71.1,241c0,0,34.7,21.1-13.7,51.8c60.7-0.8,64-47.7,64-47.7"/>
		<path class="st1" d="M121.4,245.1c0,0-18,41.9,21.8,82.1c34.2-40.2,29.4-82.1,29.4-82.1"/>
		<path class="st1" d="M273.9,240.9c0,0-35.7,20.7,12.7,51.5c-60.7-0.8-62.7-47.3-62.7-47.3"/>
		<path class="st1" d="M223.9,245.1c0,0,18,41.9-21.8,82.1c-34.2-40.2-29.4-82.1-29.4-82.1"/>
	</g>
	<g>
		<circle class="st2" cx="112.2" cy="114.2" r="30.6"/>
		<path class="st3" d="M119.3,105.5c0,7.2-5.8,0-13,0s-13,7.2-13,0s5.8-13,13-13S119.3,98.4,119.3,105.5z"/>
		<circle class="st3" cx="125.2" cy="126.3" r="5.7"/>
		<circle class="st2" cx="232.6" cy="114.2" r="30.6"/>
		<path class="st3" d="M239.7,105.5c0,7.2-5.8,0-13,0s-13,7.2-13,0s5.8-13,13-13S239.7,98.4,239.7,105.5z"/>
		<circle class="st3" cx="245.6" cy="126.3" r="5.7"/>
	</g>
	<path class="st1" d="M156.4,384.6c-2.9,2.9-13.8,4.6-13.8,4.6l0.1,0.2c-2.7-2.1-5.9-3.6-9.3-4.5c-0.1-0.2-6.5-8.9-6.5-13
		c0,4-5.5,11-7.2,13c-3.3,0.9-6.3,2.4-9,4.3c-1.4-0.2-10.9-1.8-13.6-4.5c3.2,3.2,4.5,15.3,4.7,16.3c-1.2,3-1.7,6.2-1.7,9.5
		c0,14.7,11.9,26.5,26.5,26.5s26.5-11.9,26.5-26.5c0-3.4-0.6-6.5-1.7-9.5C151.6,399.9,153.2,387.8,156.4,384.6z"/>
	<path class="st1" d="M188.6,384.6c2.9,2.9,13.8,4.6,13.8,4.6l-0.1,0.2c2.7-2.1,5.9-3.6,9.3-4.5c0.1-0.2,6.5-8.9,6.5-13
		c0,4,5.5,11,7.2,13c3.3,0.9,6.3,2.4,9,4.3c1.4-0.2,10.9-1.8,13.6-4.5c-3.2,3.2-4.5,15.3-4.7,16.3c1.2,3,1.7,6.2,1.7,9.5
		c0,14.7-11.9,26.5-26.5,26.5c-14.7,0-26.5-11.9-26.5-26.5c0-3.4,0.6-6.5,1.7-9.5C193.4,399.9,191.8,387.8,188.6,384.6z"/>
</g>
<g>
	<g>
		<path class="st4" d="M416.5,179.7c0,8-3,12-9.1,12c-3,0-5.5-1.1-7.4-3.4c1.6-0.8,3-2.4,4.2-4.8c1.2-2.3,1.8-4.6,1.8-7
			s-0.6-4.3-1.8-5.8c-1.2-1.6-3.1-2.4-5.8-2.4c-2.6,0-5.1,0.9-7.4,2.7c-2.3,1.8-4.4,4.2-6.4,7.2c-4,6.1-7.3,13.9-9.8,23.4
			c-2.5,9.5-3.8,18.1-3.8,25.8c0,7.7,1.1,13.3,3.4,16.8c2.3,3.5,6.1,5.2,11.6,5.2c10.8,0,19.5-4.3,25.9-13l3,1.3
			c-4.1,10.5-12,17.8-23.7,21.8c-4.6,1.6-9.1,2.4-13.5,2.4c-0.1,0-0.3,0-0.4,0c-9.6-0.1-16.7-2.6-21.2-7.5
			c-4.5-4.9-6.8-12.8-6.8-23.7c0-10.9,1.8-21.7,5.4-32.6c4.2-12.8,10.4-22.3,18.5-28.7c6.3-4.8,13.4-7.2,21.5-7.2
			c10.1,0,16.7,3.2,20,9.5C415.9,174,416.5,176.6,416.5,179.7z"/>
		<path class="st4" d="M406.6,259.8l13.8-65h18.7l-1.7,8.1c2.2-1.9,4.5-3.7,7.1-5.5c2.6-1.7,5.4-2.6,8.4-2.6c3,0,5.3,1,6.8,3
			c1.5,2,2.3,3.9,2.3,5.7c0,3.1-0.8,5.7-2.5,7.6c-1.7,1.9-3.7,2.9-6.1,2.9c-2.4,0-3.9-0.5-4.7-1.6c-0.8-1.1-1.2-2.2-1.4-3.3
			c-0.2-1.1-0.4-2-0.7-2.7c-0.3-0.7-0.9-1-1.7-1c-1.8,0-3.3,0.4-4.7,1.2c-1.4,0.8-2.9,2.1-4.6,3.7l-10.4,49.4H406.6z"/>
		<path class="st4" d="M514.8,236.5c-9.7,16-21.6,24.1-35.7,24.1c-6.2,0-11.1-1.6-14.8-4.8c-3.7-3.2-5.5-8.5-5.5-15.8
			c0-9.9,2.5-19.5,7.6-28.8c3.9-7.1,9.1-12.1,15.7-15.1c3.4-1.6,7-2.4,10.7-2.4c6,0,10.1,1.1,12.3,3.4s3.2,5.3,3.2,9
			c0,7.4-3,13.7-9,18.9s-12.9,8-20.9,8.5c-0.2,2.5-0.3,4.2-0.3,5.2c0,4.4,0.8,7.4,2.3,8.8c1.6,1.4,3.8,2.1,6.6,2.1
			c5,0,9.2-1.1,12.6-3.3c3.4-2.2,7-5.5,10.8-9.8H514.8z M498.1,205.2c0-3.1-1.1-4.7-3.2-4.7c-3.2,0.1-6.2,2.9-9.2,8.4
			c-3,5.5-5.1,11.6-6.4,18.4c5-0.3,9.4-2.7,13.2-7S498.1,211,498.1,205.2z"/>
		<path class="st4" d="M584.1,236.5c-5.5,16-14.2,24.1-26.1,24.1c-7.7,0-11.9-4-12.8-11.9c-5.7,8-12.3,11.9-19.8,11.9
			c-7.6,0-12.7-3.7-15.4-11.1c-1-2.7-1.5-5.7-1.5-9.1s0.3-6.8,0.9-10.2c0.6-3.4,1.5-6.8,2.7-10.2c2.7-7.4,6.6-13.6,11.6-18.5
			c5-4.9,11.1-7.3,18.2-7.3c3.7,0,6.4,0.6,8.1,1.9s2.5,2.8,2.5,4.7v1l1.4-6.9h18.7l-9.3,44.2c-0.4,1.5-0.6,2.9-0.6,4.2
			c0,3.7,1.8,5.6,5.3,5.6c4.6,0,8.1-4.1,10.5-12.3H584.1z M551.4,207.2c0-0.8-0.4-1.8-1.1-3.1c-0.7-1.2-2.3-1.9-4.7-1.9
			s-4.8,1.3-7,3.9c-5.5,6.2-9,15.2-10.3,26.8c-0.2,1.8-0.3,3.7-0.3,5.6c0,3.9,0.8,6.5,2.4,8.1c0.9,0.9,2.1,1.4,3.5,1.4
			c2.6,0,4.9-1,7-3.1c2.1-2.1,3.6-4.9,4.4-8.4L551.4,207.2z"/>
		<path class="st4" d="M618.9,236.5c-5.6,16-14.9,24.1-28,24.1c-3.4,0-6.5-1.2-9.2-3.7c-2.7-2.5-4-6.4-4-11.9c0-2.5,0.3-5.3,1-8.5
			l7.8-36.5h-4.3l1.1-5.2h4.3l3.9-18l19.2-2.6l-4.4,20.6h7.8l-1,5.2h-7.8l-8.3,39c-0.3,1.6-0.5,3.1-0.5,4.6c0,2.9,1.8,4.4,5.3,4.4
			c2.5,0,4.9-1.1,7.1-3.3c2.2-2.2,3.7-4.9,4.7-8.2H618.9z"/>
		<path class="st4" d="M684.5,236.5c-5.5,16-14.2,24.1-26.1,24.1c-7.7,0-12-4.1-12.9-12.3c-5.1,8.2-11.5,12.3-19.2,12.3
			c-3.9,0-7.2-1.2-9.9-3.7c-2.7-2.5-4-6.4-4-11.9c0-2.5,0.3-5.3,1-8.5l8.8-41.7H641l-9.3,44.2c-0.3,1.4-0.4,2.6-0.4,3.7
			c0,3.6,1.3,5.3,3.9,5.3c4.6,0,8-3.8,10.4-11.5l8.8-41.7h18.7l-9.3,44.2c-0.4,1.5-0.6,3-0.6,4.6c0,3,1.8,4.4,5.3,4.4
			c4.9,0,8.4-3.8,10.5-11.5H684.5z"/>
		<path class="st4" d="M674.1,259.8l13.8-65h18.7l-1.7,8.1c2.2-1.9,4.5-3.7,7.1-5.5c2.6-1.7,5.4-2.6,8.4-2.6c3,0,5.3,1,6.8,3
			c1.5,2,2.3,3.9,2.3,5.7c0,3.1-0.8,5.7-2.5,7.6c-1.7,1.9-3.7,2.9-6.1,2.9c-2.4,0-3.9-0.5-4.7-1.6c-0.8-1.1-1.2-2.2-1.4-3.3
			c-0.2-1.1-0.4-2-0.7-2.7c-0.3-0.7-0.9-1-1.7-1c-1.8,0-3.3,0.4-4.7,1.2c-1.4,0.8-2.9,2.1-4.6,3.7l-10.4,49.4H674.1z"/>
		<path class="st4" d="M782.3,236.5c-9.7,16-21.6,24.1-35.7,24.1c-6.2,0-11.1-1.6-14.8-4.8c-3.7-3.2-5.5-8.5-5.5-15.8
			c0-9.9,2.5-19.5,7.6-28.8c3.9-7.1,9.1-12.1,15.7-15.1c3.4-1.6,7-2.4,10.7-2.4c6,0,10.1,1.1,12.3,3.4s3.2,5.3,3.2,9
			c0,7.4-3,13.7-9,18.9s-12.9,8-20.9,8.5c-0.2,2.5-0.3,4.2-0.3,5.2c0,4.4,0.8,7.4,2.3,8.8c1.6,1.4,3.8,2.1,6.6,2.1
			c5,0,9.2-1.1,12.6-3.3c3.4-2.2,7-5.5,10.8-9.8H782.3z M765.6,205.2c0-3.1-1.1-4.7-3.2-4.7c-3.2,0.1-6.2,2.9-9.2,8.4
			c-3,5.5-5.1,11.6-6.4,18.4c5-0.3,9.4-2.7,13.2-7S765.6,211,765.6,205.2z"/>
		<path class="st4" d="M815.8,190.8c0.3,8.1,0.7,14.9,1,20.4l1.6,20.6c0.2,2,0.3,4.3,0.3,6.8c0,2.5-0.4,4.9-1.2,7.1
			c-0.8,2.2-1.9,4.2-3.2,5.8c-2.5,3.1-5.7,5.4-9.6,6.9c-3.9,1.5-7.7,2.2-11.4,2.2c-6.4,0-11.3-1.7-14.6-5s-5-6.9-5-10.6
			c0-3.7,0.7-6.7,2.2-8.7c1.4-2.1,3-3.5,4.8-4.4c6.1-10.9,11.4-23.8,16-38.5L815.8,190.8z M787.3,250.3c8.3,0,12.4-4,12.4-12.1
			c0-2.2-0.2-4.9-0.5-7.9l-0.8-7.4c-0.5-4.7-0.9-9.9-1.2-15.4c-2.2,7.1-5.7,15.3-10.5,24.6c2,0.9,3,2.3,3,4.2c0,1.8-0.5,3.4-1.6,4.8
			c-1,1.3-2.4,2-4.2,2c-1.8,0-2.9-0.6-3.5-1.7C780.5,247.3,782.8,250.3,787.3,250.3z"/>
		<path class="st4" d="M920.1,210.4c-5.2,5.5-12.9,9.1-23,10.8c-1,11.8-4.4,21.3-10.2,28.4c-5.8,7.1-12.7,10.7-20.8,10.7
			c-10,0-16.4-3.7-19.3-11c-1-2.6-1.5-5.4-1.5-8.6c0-3.1,0.3-6.3,0.8-9.6c0.5-3.2,1.4-6.6,2.5-10c2.6-7.7,6.3-14,11.2-18.9
			c5.8-5.8,12.9-8.6,21.1-8.6c11.1,0,16.7,6.9,16.7,20.8v0.1c0.4,0.1,1.1,0.1,2.2,0.1c2.3,0,5.3-0.7,9-2.2c3.7-1.5,7.1-3.3,10.3-5.6
			L920.1,210.4z M886.3,221.6c-2.3-0.6-3.5-2.5-3.5-5.8c0-3.3,1.4-5.5,4.1-6.7c-0.2-2.8-0.6-4.7-1.3-5.8c-0.7-1.1-2.1-1.7-4.1-1.7
			c-4,0-7.8,4.4-11.4,13.2c-3.6,8.8-5.5,16.6-5.5,23.4c0,4.2,0.4,6.8,1.1,8s1.6,1.8,2.4,2.1c0.8,0.3,2,0.4,3.4,0.4
			c3,0,5.9-2.6,8.8-7.8S885.3,229.2,886.3,221.6z"/>
		<path class="st4" d="M947.7,181.8c0.2-1.4,0.3-2.6,0.3-3.9c0-1.2-0.5-2.2-1.5-3s-2-1.1-3-1.1c-2.1,0-4.1,0.8-5.8,2.4
			c-1.8,1.6-3,4.4-3.8,8.2l-2.2,10.3h9.5l-1,5.2h-9.6l-15,70.2c-3,14.7-10.7,22.1-23.2,22.1c-4,0-7.6-1.3-10.7-4
			c-3.1-2.6-4.7-5.7-4.7-9.2c0-3.5,0.6-6.3,1.8-8.4c1.2-2.1,2.8-3.9,4.8-5.3c3-2.1,8.2-4.3,15.7-6.6l15.7-74.3
			c3.1-14.7,11-22.1,23.7-22.1c4,0,7.6,1.3,10.7,3.9c3.1,2.6,4.6,6,4.6,10.1c0,2-0.1,3.8-0.4,5.3H947.7z M898.5,263
			c-4.6,1.6-7.8,3.1-9.5,4.5c-3.2,2.6-4.8,5.6-4.8,8.9c0,1.7,1,3,3.1,3.9c0.6,0.3,1.5,0.4,2.6,0.4c1.1,0,2.3-0.7,3.7-2.2
			c1.4-1.5,2.4-4.1,3.2-7.9L898.5,263z"/>
		<path class="st4" d="M1021.8,171.4c-5.7,2.4-10.2,6-13.5,10.8c-3.3,4.8-4.9,10.7-4.9,17.7c0,3.4,0.5,6.1,1.6,7.9
			c0.2,0.3,0.3,0.6,0.3,0.9c-6.9,0-11.3-2.2-12.9-6.7c-0.6-1.6-1-3.6-1-6c0-4.4,1.4-8.6,4.1-12.6c2.7-4,6.3-7.6,10.6-10.8
			c9.9-6.9,20.2-10.4,31-10.4h5.2l-19.5,92.3c-2.3,10.6-6,18.6-11.2,24c-5.2,5.4-12.9,8.1-23,8.1c-6.3,0-11-1.7-14.3-5.1
			c-3.3-3.4-4.9-7.6-4.9-12.7s1.4-9.3,4.3-12.8c2.8-3.5,6.4-5.2,10.7-5.2s7.2,0.4,8.7,1.1c3.3,1.4,4.9,4,4.9,7.6
			c0,1.6-0.3,3.3-0.8,5.2c-2.4-1.9-4.2-3-5.2-3.1c-1.1-0.1-1.9-0.2-2.6-0.2c-3,0-5.3,1-6.8,3c-1.5,2-2.3,4-2.3,6.1
			c0,3.5,0.9,5.9,2.7,7.4c1.8,1.5,3.6,2.2,5.5,2.2c3.5,0,6.2-1,8-3.1c1.8-2.1,3.5-6.4,5-12.9L1021.8,171.4z"/>
		<path class="st4" d="M1090.8,188.3c3.9-2.2,5.8-6.3,5.8-12.1c0-1.7-0.7-3.4-2.1-5.2c-1.4-1.8-3.9-2.7-7.6-2.7s-6.6,1-8.7,3
			c-2.2,2-3.2,4.5-3.2,7.7s0.4,5.7,1.3,7.6c1.5,3.5,4.2,6.9,8,10.3l5.3,4.8c4.7,4.2,8,7.7,9.6,10.5c3.3,5.6,5,11.3,5,17.1
			c0,10.8-3.7,19.1-11.2,25c-6.7,5.4-15.2,8.1-25.4,8.1c-12.6,0-21.1-4-25.3-12.1c-1.5-2.8-2.2-6.1-2.2-9.9c0-6.8,1.9-12.1,5.8-15.9
			c3.9-3.8,8.3-5.7,13.1-5.7s8.3,1.5,10.3,4.4c0.8,1.1,1.2,2.5,1.3,4.2c-6.6,0-11.3,2.2-13.8,6.5c-0.9,1.6-1.4,3.3-1.4,5.3
			c0,3.7,1.1,6.8,3.3,9.2c2.2,2.5,5.4,3.7,9.6,3.7s7.7-1.5,10.5-4.5c2.8-3,4.2-6.8,4.2-11.4c0-4.6-0.7-8.4-2-11.4
			c-1.3-3-3-5.8-5-8.3c-2-2.6-4.1-5-6.4-7.4c-2.3-2.3-4.4-4.7-6.4-7.1c-4.6-5.6-6.9-11-6.9-16.3c0-6.7,2.9-12.2,8.7-16.7
			c5.8-4.4,12.9-6.6,21.4-6.6c10.5,0,17.1,3.2,19.8,9.5c0.8,1.7,1.1,4.1,1.1,7.2c0,3.1-1,5.9-2.9,8.3c-1.9,2.5-4.3,3.7-7.1,3.7
			C1094.6,191.1,1092.4,190.2,1090.8,188.3z"/>
		<path class="st5" d="M417.8,400.9l-6.7,31.7l-19.6,4.7L413.2,335h18.7l-2.1,9.8c4.3-3.7,9.4-5.6,15.2-5.6
			c7.5,0,12.4,3.6,14.7,10.8c0.8,2.6,1.2,5.6,1.2,9c0,3.4-0.2,6.8-0.6,10.2c-0.4,3.4-1.1,6.8-2.1,10.2c-1,3.4-2.3,6.7-3.8,9.8
			c-1.6,3.1-3.6,5.9-5.9,8.3c-2.4,2.4-5.2,4.4-8.4,5.8s-7.3,2.2-12.1,2.2C423.1,405.6,419.7,404,417.8,400.9z M443.1,359.3
			c0-7.2-2.2-10.8-6.5-10.8c-1.5,0-3,0.5-4.7,1.6c-1.6,1.1-3.1,2.7-4.3,4.8l-7.7,36.4c0.8,2,2.6,3,5.6,3c2.9,0,5.6-1.2,7.9-3.7
			c4.5-4.8,7.4-11.7,8.8-20.7C442.8,365.9,443.1,362.4,443.1,359.3z"/>
		<path class="st5" d="M459.2,404.8l13.8-65h18.7l-1.7,8.1c2.2-1.9,4.5-3.7,7.1-5.5c2.6-1.7,5.4-2.6,8.4-2.6c3,0,5.3,1,6.8,3
			c1.5,2,2.3,3.9,2.3,5.7c0,3.1-0.8,5.7-2.5,7.6c-1.7,1.9-3.7,2.9-6.1,2.9c-2.4,0-3.9-0.5-4.7-1.6c-0.8-1.1-1.2-2.2-1.4-3.3
			c-0.2-1.1-0.4-2-0.7-2.7c-0.3-0.7-0.9-1-1.7-1c-1.8,0-3.3,0.4-4.7,1.2c-1.4,0.8-2.9,2.1-4.6,3.7l-10.4,49.4H459.2z"/>
		<path class="st5" d="M586.1,355.4c-5.2,5.5-12.9,9.1-23,10.8c-1,11.8-4.4,21.3-10.2,28.4c-5.8,7.1-12.7,10.7-20.8,10.7
			c-10,0-16.4-3.7-19.3-11c-1-2.6-1.5-5.4-1.5-8.6c0-3.1,0.3-6.3,0.8-9.6c0.5-3.2,1.4-6.6,2.5-10c2.6-7.7,6.3-14,11.2-18.9
			c5.8-5.8,12.9-8.6,21.1-8.6c11.1,0,16.7,6.9,16.7,20.8v0.1c0.4,0.1,1.1,0.1,2.2,0.1c2.3,0,5.3-0.7,9-2.2c3.7-1.5,7.1-3.3,10.3-5.6
			L586.1,355.4z M552.2,366.6c-2.3-0.6-3.5-2.5-3.5-5.8c0-3.3,1.4-5.5,4.1-6.7c-0.2-2.8-0.6-4.7-1.3-5.8c-0.7-1.1-2.1-1.7-4.1-1.7
			c-4,0-7.8,4.4-11.4,13.2c-3.6,8.8-5.5,16.6-5.5,23.4c0,4.2,0.4,6.8,1.1,8s1.6,1.8,2.4,2.1c0.8,0.3,2,0.4,3.4,0.4
			c3,0,5.9-2.6,8.8-7.8S551.2,374.2,552.2,366.6z"/>
		<path class="st5" d="M621.2,319.7c-0.2-3.5-2.6-5.2-7.2-5.2c-5.7,0-9.8,3.1-12.2,9.2c-0.7,1.8-1.2,3.6-1.6,5.5l-2.2,10.7h10.4
			l-1,5.2H597l-14.9,70.2c-1.7,8.1-5,14-9.8,17.8c-3.7,2.9-8,4.3-12.9,4.3c-4.9,0-8.8-1.3-11.8-3.9c-3-2.6-4.5-6.2-4.5-10.6
			c0-7.3,4.8-12.7,14.3-16.2c2.7-1,5.4-1.9,8.1-2.8l14.5-68.4c4-18.6,14.1-27.9,30.4-27.9c12.1,0,19.5,3.2,22.3,9.5
			c0.7,1.6,1,3.4,1,5.5c0,3.9-1.1,6.6-3.2,8.1c-2.1,1.6-4.5,2.3-7.1,2.3c-5.2,0-7.8-2.3-7.8-7c0-1.5,0.4-2.9,1.2-4.3
			c0.8-1.4,1.9-2.1,3.2-2.1h0.6C620.9,319.6,621.1,319.6,621.2,319.7z M564.7,408c-9.6,3.1-14.4,7.3-14.4,12.5c0,1.9,0.6,3.2,1.8,4
			c1.2,0.8,2.4,1.2,3.6,1.2c1.2,0,2.6-0.8,4.1-2.3c1.5-1.5,2.6-4.2,3.4-7.8L564.7,408z M645,381.5c-5.6,16-14.9,24.1-28.1,24.1
			c-3.4,0-6.4-1.2-9.1-3.7c-2.7-2.5-4-6.4-4-11.9c0-2.5,0.3-5.3,1-8.5l8.8-41.7h18.7L623,384c-0.3,1.6-0.5,3.1-0.5,4.6
			c0,2.9,1.8,4.4,5.3,4.4c2.5,0,4.9-1.1,7.1-3.3c2.2-2.2,3.7-4.9,4.7-8.2H645z"/>
		<path class="st5" d="M679.7,381.5c-5.6,16-14.9,24.1-28,24.1c-3.4,0-6.5-1.2-9.2-3.7c-2.7-2.5-4-6.4-4-11.9c0-2.5,0.3-5.3,1-8.5
			l13.9-65.1l19.2-2.6L657.7,384c-0.3,1.6-0.5,3.1-0.5,4.6c0,2.9,1.8,4.4,5.3,4.4c2.5,0,4.9-1.1,7.1-3.3c2.2-2.2,3.7-4.9,4.7-8.2
			H679.7z"/>
		<path class="st5" d="M691.6,382.5c0,7.2,2.8,10.8,8.3,10.8c2.4,0,5-0.7,7.8-2.1c2.8-1.4,5.3-3,7.3-4.8
			c-2.3,12.8-9.8,19.2-22.5,19.2c-6.1,0-11-1.6-14.7-4.8c-3.7-3.2-5.5-8.5-5.5-15.8c0-9.9,2.5-19.5,7.6-28.8
			c3.9-7.1,9.1-12.1,15.7-15.1c3.4-1.6,7-2.4,10.7-2.4c6,0,10.1,1.1,12.3,3.4s3.2,5.3,3.2,9c0,7.4-3,13.8-8.9,18.9
			c-5.9,5.2-12.9,8-21,8.5C691.7,379.7,691.6,381,691.6,382.5z M711.8,350.2c0-3.1-1.1-4.7-3.2-4.7c-4.1,0.2-8.1,5-11.9,14.3
			c-1.6,4-2.9,8.2-3.9,12.4c5-0.2,9.4-2.4,13.2-6.8C709.9,361.2,711.8,356.1,711.8,350.2z"/>
		<path class="st5" d="M724.3,375.9l2.3-10.2h26l-2.2,10.2H724.3z"/>
		<path class="st5" d="M791.7,338.7c10.4,0,15.6,3.9,15.6,11.8c0,3.3-0.7,5.7-2,7.3c-1.4,1.5-2.9,2.3-4.6,2.3
			c-1.7,0-3.3-0.5-4.9-1.5c1.1-2.8,1.6-5.4,1.6-7.7c0-3.6-1.2-5.3-3.7-5.3c-2.5,0-5.1,2.2-7.8,6.7c-3.9,6.3-6.6,14.2-8.1,23.7
			c-0.4,2.8-0.6,5.9-0.6,9.3c0,6.3,3,9.4,9,9.4c5,0,9.2-1.1,12.6-3.3c3.4-2.2,7-5.5,10.8-9.8h4.4c-9.7,16-21.6,24.1-35.7,24.1
			c-6.2,0-11.1-1.6-14.8-4.8c-3.7-3.2-5.5-8.5-5.5-15.8c0-9.9,2.5-19.6,7.6-28.8c3.8-7,9-12,15.7-15
			C784.5,339.5,788,338.7,791.7,338.7z"/>
		<path class="st5" d="M883.3,381.5c-5.5,16-14.2,24.1-26.1,24.1c-7.7,0-11.9-4-12.8-11.9c-5.7,8-12.3,11.9-19.8,11.9
			c-7.6,0-12.7-3.7-15.4-11.1c-1-2.7-1.5-5.7-1.5-9.1s0.3-6.8,0.9-10.2c0.6-3.4,1.5-6.8,2.7-10.2c2.7-7.4,6.6-13.6,11.6-18.5
			c5-4.9,11.1-7.3,18.2-7.3c3.7,0,6.4,0.6,8.1,1.9s2.5,2.8,2.5,4.7v1l1.4-6.9h18.7l-9.3,44.2c-0.4,1.5-0.6,2.9-0.6,4.2
			c0,3.7,1.8,5.6,5.3,5.6c4.6,0,8.1-4.1,10.5-12.3H883.3z M850.5,352.2c0-0.8-0.4-1.8-1.1-3.1c-0.7-1.2-2.3-1.9-4.7-1.9
			s-4.8,1.3-7,3.9c-5.5,6.2-9,15.2-10.3,26.8c-0.2,1.8-0.3,3.7-0.3,5.6c0,3.9,0.8,6.5,2.4,8.1c0.9,0.9,2.1,1.4,3.5,1.4
			c2.6,0,4.9-1,7-3.1c2.1-2.1,3.6-4.9,4.4-8.4L850.5,352.2z"/>
		<path class="st5" d="M872.8,404.8l13.8-65h18.7l-1.7,8.1c2.2-1.9,4.5-3.7,7.1-5.5c2.6-1.7,5.4-2.6,8.4-2.6c3,0,5.3,1,6.8,3
			c1.5,2,2.3,3.9,2.3,5.7c0,3.1-0.8,5.7-2.5,7.6c-1.7,1.9-3.7,2.9-6.1,2.9c-2.4,0-3.9-0.5-4.7-1.6c-0.8-1.1-1.2-2.2-1.4-3.3
			c-0.2-1.1-0.4-2-0.7-2.7c-0.3-0.7-0.9-1-1.7-1c-1.8,0-3.3,0.4-4.7,1.2c-1.4,0.8-2.9,2.1-4.6,3.7l-10.4,49.4H872.8z"/>
		<path class="st5" d="M961.5,393.6c-5.2,8-11.7,11.9-19.5,11.9s-12.9-3.7-15.6-11.1c-1-2.7-1.5-5.7-1.5-9.1s0.3-6.8,0.9-10.2
			c0.6-3.4,1.5-6.8,2.7-10.2c2.7-7.4,6.6-13.6,11.6-18.5c5-4.9,11.1-7.3,18.2-7.3c3.7,0,6.4,0.6,8.1,1.9s2.5,2.8,2.5,4.7v0.5
			l6.3-29.9l19.2-2.6L979.6,384c-0.4,1.5-0.6,3-0.6,4.6c0,3,1.8,4.4,5.3,4.4c4.9,0,8.4-3.8,10.5-11.5h5.5
			c-5.4,15.5-14.1,23.3-26.1,23.3C966.8,404.8,962.5,401.1,961.5,393.6z M944.2,383.5c0,6.3,2.2,9.5,6.5,9.5c1.8,0,3.8-0.9,6.1-2.6
			c2.2-1.8,3.8-4.5,4.7-8.2v-0.7l6.3-29.8c-0.8-3-2.6-4.5-5.3-4.5c-2.8,0-5.3,1.3-7.6,3.9c-5.5,6.2-9,15.2-10.3,26.8
			C944.3,379.7,944.2,381.6,944.2,383.5z"/>
		<path class="st5" d="M1032.9,335.8c0.3,8.1,0.7,14.9,1,20.4l1.6,20.6c0.2,2,0.3,4.3,0.3,6.8c0,2.5-0.4,4.9-1.2,7.1
			c-0.8,2.2-1.9,4.2-3.2,5.8c-2.5,3.1-5.7,5.4-9.6,6.9c-3.9,1.5-7.7,2.2-11.4,2.2c-6.4,0-11.3-1.7-14.6-5s-5-6.9-5-10.6
			c0-3.7,0.7-6.7,2.2-8.7c1.4-2.1,3-3.5,4.8-4.4c6.1-10.9,11.4-23.8,16-38.5L1032.9,335.8z M1004.4,395.3c8.3,0,12.4-4,12.4-12.1
			c0-2.2-0.2-4.9-0.5-7.9l-0.8-7.4c-0.5-4.7-0.9-9.9-1.2-15.4c-2.2,7.1-5.7,15.3-10.5,24.6c2,0.9,3,2.3,3,4.2c0,1.8-0.5,3.4-1.6,4.8
			c-1,1.3-2.4,2-4.2,2c-1.8,0-2.9-0.6-3.5-1.7C997.6,392.3,999.9,395.3,1004.4,395.3z"/>
	</g>
	<g>
		<path class="st6" d="M414.5,172.7c0,8-3,12-9.1,12c-3,0-5.5-1.1-7.4-3.4c1.6-0.8,3-2.4,4.2-4.8c1.2-2.3,1.8-4.6,1.8-7
			s-0.6-4.3-1.8-5.8c-1.2-1.6-3.1-2.4-5.8-2.4c-2.6,0-5.1,0.9-7.4,2.7c-2.3,1.8-4.4,4.2-6.4,7.2c-4,6.1-7.3,13.9-9.8,23.4
			c-2.5,9.5-3.8,18.1-3.8,25.8c0,7.7,1.1,13.3,3.4,16.8c2.3,3.5,6.1,5.2,11.6,5.2c10.8,0,19.5-4.3,25.9-13l3,1.3
			c-4.1,10.5-12,17.8-23.7,21.8c-4.6,1.6-9.1,2.4-13.5,2.4c-0.1,0-0.3,0-0.4,0c-9.6-0.1-16.7-2.6-21.2-7.5
			c-4.5-4.9-6.8-12.8-6.8-23.7c0-10.9,1.8-21.7,5.4-32.6c4.2-12.8,10.4-22.3,18.5-28.7c6.3-4.8,13.4-7.2,21.5-7.2
			c10.1,0,16.7,3.2,20,9.5C413.9,167,414.5,169.6,414.5,172.7z"/>
		<path class="st6" d="M404.6,252.8l13.8-65h18.7l-1.7,8.1c2.2-1.9,4.5-3.7,7.1-5.5c2.6-1.7,5.4-2.6,8.4-2.6c3,0,5.3,1,6.8,3
			c1.5,2,2.3,3.9,2.3,5.7c0,3.1-0.8,5.7-2.5,7.6c-1.7,1.9-3.7,2.9-6.1,2.9c-2.4,0-3.9-0.5-4.7-1.6c-0.8-1.1-1.2-2.2-1.4-3.3
			c-0.2-1.1-0.4-2-0.7-2.7c-0.3-0.7-0.9-1-1.7-1c-1.8,0-3.3,0.4-4.7,1.2c-1.4,0.8-2.9,2.1-4.6,3.7l-10.4,49.4H404.6z"/>
		<path class="st6" d="M512.8,229.5c-9.7,16-21.6,24.1-35.7,24.1c-6.2,0-11.1-1.6-14.8-4.8c-3.7-3.2-5.5-8.5-5.5-15.8
			c0-9.9,2.5-19.5,7.6-28.8c3.9-7.1,9.1-12.1,15.7-15.1c3.4-1.6,7-2.4,10.7-2.4c6,0,10.1,1.1,12.3,3.4s3.2,5.3,3.2,9
			c0,7.4-3,13.7-9,18.9s-12.9,8-20.9,8.5c-0.2,2.5-0.3,4.2-0.3,5.2c0,4.4,0.8,7.4,2.3,8.8c1.6,1.4,3.8,2.1,6.6,2.1
			c5,0,9.2-1.1,12.6-3.3c3.4-2.2,7-5.5,10.8-9.8H512.8z M496.1,198.2c0-3.1-1.1-4.7-3.2-4.7c-3.2,0.1-6.2,2.9-9.2,8.4
			c-3,5.5-5.1,11.6-6.4,18.4c5-0.3,9.4-2.7,13.2-7S496.1,204,496.1,198.2z"/>
		<path class="st6" d="M582.1,229.5c-5.5,16-14.2,24.1-26.1,24.1c-7.7,0-11.9-4-12.8-11.9c-5.7,8-12.3,11.9-19.8,11.9
			c-7.6,0-12.7-3.7-15.4-11.1c-1-2.7-1.5-5.7-1.5-9.1s0.3-6.8,0.9-10.2c0.6-3.4,1.5-6.8,2.7-10.2c2.7-7.4,6.6-13.6,11.6-18.5
			c5-4.9,11.1-7.3,18.2-7.3c3.7,0,6.4,0.6,8.1,1.9s2.5,2.8,2.5,4.7v1l1.4-6.9h18.7l-9.3,44.2c-0.4,1.5-0.6,2.9-0.6,4.2
			c0,3.7,1.8,5.6,5.3,5.6c4.6,0,8.1-4.1,10.5-12.3H582.1z M549.4,200.2c0-0.8-0.4-1.8-1.1-3.1c-0.7-1.2-2.3-1.9-4.7-1.9
			s-4.8,1.3-7,3.9c-5.5,6.2-9,15.2-10.3,26.8c-0.2,1.8-0.3,3.7-0.3,5.6c0,3.9,0.8,6.5,2.4,8.1c0.9,0.9,2.1,1.4,3.5,1.4
			c2.6,0,4.9-1,7-3.1c2.1-2.1,3.6-4.9,4.4-8.4L549.4,200.2z"/>
		<path class="st6" d="M616.9,229.5c-5.6,16-14.9,24.1-28,24.1c-3.4,0-6.5-1.2-9.2-3.7c-2.7-2.5-4-6.4-4-11.9c0-2.5,0.3-5.3,1-8.5
			l7.8-36.5h-4.3l1.1-5.2h4.3l3.9-18l19.2-2.6l-4.4,20.6h7.8l-1,5.2h-7.8l-8.3,39c-0.3,1.6-0.5,3.1-0.5,4.6c0,2.9,1.8,4.4,5.3,4.4
			c2.5,0,4.9-1.1,7.1-3.3c2.2-2.2,3.7-4.9,4.7-8.2H616.9z"/>
		<path class="st6" d="M682.5,229.5c-5.5,16-14.2,24.1-26.1,24.1c-7.7,0-12-4.1-12.9-12.3c-5.1,8.2-11.5,12.3-19.2,12.3
			c-3.9,0-7.2-1.2-9.9-3.7c-2.7-2.5-4-6.4-4-11.9c0-2.5,0.3-5.3,1-8.5l8.8-41.7H639l-9.3,44.2c-0.3,1.4-0.4,2.6-0.4,3.7
			c0,3.6,1.3,5.3,3.9,5.3c4.6,0,8-3.8,10.4-11.5l8.8-41.7h18.7l-9.3,44.2c-0.4,1.5-0.6,3-0.6,4.6c0,3,1.8,4.4,5.3,4.4
			c4.9,0,8.4-3.8,10.5-11.5H682.5z"/>
		<path class="st6" d="M672.1,252.8l13.8-65h18.7l-1.7,8.1c2.2-1.9,4.5-3.7,7.1-5.5c2.6-1.7,5.4-2.6,8.4-2.6c3,0,5.3,1,6.8,3
			c1.5,2,2.3,3.9,2.3,5.7c0,3.1-0.8,5.7-2.5,7.6c-1.7,1.9-3.7,2.9-6.1,2.9c-2.4,0-3.9-0.5-4.7-1.6c-0.8-1.1-1.2-2.2-1.4-3.3
			c-0.2-1.1-0.4-2-0.7-2.7c-0.3-0.7-0.9-1-1.7-1c-1.8,0-3.3,0.4-4.7,1.2c-1.4,0.8-2.9,2.1-4.6,3.7l-10.4,49.4H672.1z"/>
		<path class="st6" d="M780.3,229.5c-9.7,16-21.6,24.1-35.7,24.1c-6.2,0-11.1-1.6-14.8-4.8c-3.7-3.2-5.5-8.5-5.5-15.8
			c0-9.9,2.5-19.5,7.6-28.8c3.9-7.1,9.1-12.1,15.7-15.1c3.4-1.6,7-2.4,10.7-2.4c6,0,10.1,1.1,12.3,3.4s3.2,5.3,3.2,9
			c0,7.4-3,13.7-9,18.9s-12.9,8-20.9,8.5c-0.2,2.5-0.3,4.2-0.3,5.2c0,4.4,0.8,7.4,2.3,8.8c1.6,1.4,3.8,2.1,6.6,2.1
			c5,0,9.2-1.1,12.6-3.3c3.4-2.2,7-5.5,10.8-9.8H780.3z M763.6,198.2c0-3.1-1.1-4.7-3.2-4.7c-3.2,0.1-6.2,2.9-9.2,8.4
			c-3,5.5-5.1,11.6-6.4,18.4c5-0.3,9.4-2.7,13.2-7S763.6,204,763.6,198.2z"/>
		<path class="st6" d="M813.8,183.8c0.3,8.1,0.7,14.9,1,20.4l1.6,20.6c0.2,2,0.3,4.3,0.3,6.8c0,2.5-0.4,4.9-1.2,7.1
			c-0.8,2.2-1.9,4.2-3.2,5.8c-2.5,3.1-5.7,5.4-9.6,6.9c-3.9,1.5-7.7,2.2-11.4,2.2c-6.4,0-11.3-1.7-14.6-5s-5-6.9-5-10.6
			c0-3.7,0.7-6.7,2.2-8.7c1.4-2.1,3-3.5,4.8-4.4c6.1-10.9,11.4-23.8,16-38.5L813.8,183.8z M785.3,243.3c8.3,0,12.4-4,12.4-12.1
			c0-2.2-0.2-4.9-0.5-7.9l-0.8-7.4c-0.5-4.7-0.9-9.9-1.2-15.4c-2.2,7.1-5.7,15.3-10.5,24.6c2,0.9,3,2.3,3,4.2c0,1.8-0.5,3.4-1.6,4.8
			c-1,1.3-2.4,2-4.2,2c-1.8,0-2.9-0.6-3.5-1.7C778.5,240.3,780.8,243.3,785.3,243.3z"/>
		<path class="st6" d="M918.1,203.4c-5.2,5.5-12.9,9.1-23,10.8c-1,11.8-4.4,21.3-10.2,28.4c-5.8,7.1-12.7,10.7-20.8,10.7
			c-10,0-16.4-3.7-19.3-11c-1-2.6-1.5-5.4-1.5-8.6c0-3.1,0.3-6.3,0.8-9.6c0.5-3.2,1.4-6.6,2.5-10c2.6-7.7,6.3-14,11.2-18.9
			c5.8-5.8,12.9-8.6,21.1-8.6c11.1,0,16.7,6.9,16.7,20.8v0.1c0.4,0.1,1.1,0.1,2.2,0.1c2.3,0,5.3-0.7,9-2.2c3.7-1.5,7.1-3.3,10.3-5.6
			L918.1,203.4z M884.3,214.6c-2.3-0.6-3.5-2.5-3.5-5.8c0-3.3,1.4-5.5,4.1-6.7c-0.2-2.8-0.6-4.7-1.3-5.8c-0.7-1.1-2.1-1.7-4.1-1.7
			c-4,0-7.8,4.4-11.4,13.2c-3.6,8.8-5.5,16.6-5.5,23.4c0,4.2,0.4,6.8,1.1,8s1.6,1.8,2.4,2.1c0.8,0.3,2,0.4,3.4,0.4
			c3,0,5.9-2.6,8.8-7.8S883.3,222.2,884.3,214.6z"/>
		<path class="st6" d="M945.7,174.8c0.2-1.4,0.3-2.6,0.3-3.9c0-1.2-0.5-2.2-1.5-3s-2-1.1-3-1.1c-2.1,0-4.1,0.8-5.8,2.4
			c-1.8,1.6-3,4.4-3.8,8.2l-2.2,10.3h9.5l-1,5.2h-9.6l-15,70.2c-3,14.7-10.7,22.1-23.2,22.1c-4,0-7.6-1.3-10.7-4
			c-3.1-2.6-4.7-5.7-4.7-9.2c0-3.5,0.6-6.3,1.8-8.4c1.2-2.1,2.8-3.9,4.8-5.3c3-2.1,8.2-4.3,15.7-6.6l15.7-74.3
			c3.1-14.7,11-22.1,23.7-22.1c4,0,7.6,1.3,10.7,3.9c3.1,2.6,4.6,6,4.6,10.1c0,2-0.1,3.8-0.4,5.3H945.7z M896.5,256
			c-4.6,1.6-7.8,3.1-9.5,4.5c-3.2,2.6-4.8,5.6-4.8,8.9c0,1.7,1,3,3.1,3.9c0.6,0.3,1.5,0.4,2.6,0.4c1.1,0,2.3-0.7,3.7-2.2
			c1.4-1.5,2.4-4.1,3.2-7.9L896.5,256z"/>
		<path class="st6" d="M1019.8,164.4c-5.7,2.4-10.2,6-13.5,10.8c-3.3,4.8-4.9,10.7-4.9,17.7c0,3.4,0.5,6.1,1.6,7.9
			c0.2,0.3,0.3,0.6,0.3,0.9c-6.9,0-11.3-2.2-12.9-6.7c-0.6-1.6-1-3.6-1-6c0-4.4,1.4-8.6,4.1-12.6c2.7-4,6.3-7.6,10.6-10.8
			c9.9-6.9,20.2-10.4,31-10.4h5.2l-19.5,92.3c-2.3,10.6-6,18.6-11.2,24c-5.2,5.4-12.9,8.1-23,8.1c-6.3,0-11-1.7-14.3-5.1
			c-3.3-3.4-4.9-7.6-4.9-12.7s1.4-9.3,4.3-12.8c2.8-3.5,6.4-5.2,10.7-5.2s7.2,0.4,8.7,1.1c3.3,1.4,4.9,4,4.9,7.6
			c0,1.6-0.3,3.3-0.8,5.2c-2.4-1.9-4.2-3-5.2-3.1c-1.1-0.1-1.9-0.2-2.6-0.2c-3,0-5.3,1-6.8,3c-1.5,2-2.3,4-2.3,6.1
			c0,3.5,0.9,5.9,2.7,7.4c1.8,1.5,3.6,2.2,5.5,2.2c3.5,0,6.2-1,8-3.1c1.8-2.1,3.5-6.4,5-12.9L1019.8,164.4z"/>
		<path class="st6" d="M1088.8,181.3c3.9-2.2,5.8-6.3,5.8-12.1c0-1.7-0.7-3.4-2.1-5.2c-1.4-1.8-3.9-2.7-7.6-2.7s-6.6,1-8.7,3
			c-2.2,2-3.2,4.5-3.2,7.7s0.4,5.7,1.3,7.6c1.5,3.5,4.2,6.9,8,10.3l5.3,4.8c4.7,4.2,8,7.7,9.6,10.5c3.3,5.6,5,11.3,5,17.1
			c0,10.8-3.7,19.1-11.2,25c-6.7,5.4-15.2,8.1-25.4,8.1c-12.6,0-21.1-4-25.3-12.1c-1.5-2.8-2.2-6.1-2.2-9.9c0-6.8,1.9-12.1,5.8-15.9
			c3.9-3.8,8.3-5.7,13.1-5.7s8.3,1.5,10.3,4.4c0.8,1.1,1.2,2.5,1.3,4.2c-6.6,0-11.3,2.2-13.8,6.5c-0.9,1.6-1.4,3.3-1.4,5.3
			c0,3.7,1.1,6.8,3.3,9.2c2.2,2.5,5.4,3.7,9.6,3.7s7.7-1.5,10.5-4.5c2.8-3,4.2-6.8,4.2-11.4c0-4.6-0.7-8.4-2-11.4
			c-1.3-3-3-5.8-5-8.3c-2-2.6-4.1-5-6.4-7.4c-2.3-2.3-4.4-4.7-6.4-7.1c-4.6-5.6-6.9-11-6.9-16.3c0-6.7,2.9-12.2,8.7-16.7
			c5.8-4.4,12.9-6.6,21.4-6.6c10.5,0,17.1,3.2,19.8,9.5c0.8,1.7,1.1,4.1,1.1,7.2c0,3.1-1,5.9-2.9,8.3c-1.9,2.5-4.3,3.7-7.1,3.7
			C1092.6,184.1,1090.4,183.2,1088.8,181.3z"/>
		<path class="st7" d="M415.8,393.9l-6.7,31.7l-19.6,4.7L411.2,328h18.7l-2.1,9.8c4.3-3.7,9.4-5.6,15.2-5.6
			c7.5,0,12.4,3.6,14.7,10.8c0.8,2.6,1.2,5.6,1.2,9c0,3.4-0.2,6.8-0.6,10.2c-0.4,3.4-1.1,6.8-2.1,10.2c-1,3.4-2.3,6.7-3.8,9.8
			c-1.6,3.1-3.6,5.9-5.9,8.3c-2.4,2.4-5.2,4.4-8.4,5.8s-7.3,2.2-12.1,2.2C421.1,398.6,417.7,397,415.8,393.9z M441.1,352.3
			c0-7.2-2.2-10.8-6.5-10.8c-1.5,0-3,0.5-4.7,1.6c-1.6,1.1-3.1,2.7-4.3,4.8l-7.7,36.4c0.8,2,2.6,3,5.6,3c2.9,0,5.6-1.2,7.9-3.7
			c4.5-4.8,7.4-11.7,8.8-20.7C440.8,358.9,441.1,355.4,441.1,352.3z"/>
		<path class="st7" d="M457.2,397.8l13.8-65h18.7l-1.7,8.1c2.2-1.9,4.5-3.7,7.1-5.5c2.6-1.7,5.4-2.6,8.4-2.6c3,0,5.3,1,6.8,3
			c1.5,2,2.3,3.9,2.3,5.7c0,3.1-0.8,5.7-2.5,7.6c-1.7,1.9-3.7,2.9-6.1,2.9c-2.4,0-3.9-0.5-4.7-1.6c-0.8-1.1-1.2-2.2-1.4-3.3
			c-0.2-1.1-0.4-2-0.7-2.7c-0.3-0.7-0.9-1-1.7-1c-1.8,0-3.3,0.4-4.7,1.2c-1.4,0.8-2.9,2.1-4.6,3.7l-10.4,49.4H457.2z"/>
		<path class="st7" d="M584.1,348.4c-5.2,5.5-12.9,9.1-23,10.8c-1,11.8-4.4,21.3-10.2,28.4c-5.8,7.1-12.7,10.7-20.8,10.7
			c-10,0-16.4-3.7-19.3-11c-1-2.6-1.5-5.4-1.5-8.6c0-3.1,0.3-6.3,0.8-9.6c0.5-3.2,1.4-6.6,2.5-10c2.6-7.7,6.3-14,11.2-18.9
			c5.8-5.8,12.9-8.6,21.1-8.6c11.1,0,16.7,6.9,16.7,20.8v0.1c0.4,0.1,1.1,0.1,2.2,0.1c2.3,0,5.3-0.7,9-2.2c3.7-1.5,7.1-3.3,10.3-5.6
			L584.1,348.4z M550.2,359.6c-2.3-0.6-3.5-2.5-3.5-5.8c0-3.3,1.4-5.5,4.1-6.7c-0.2-2.8-0.6-4.7-1.3-5.8c-0.7-1.1-2.1-1.7-4.1-1.7
			c-4,0-7.8,4.4-11.4,13.2c-3.6,8.8-5.5,16.6-5.5,23.4c0,4.2,0.4,6.8,1.1,8s1.6,1.8,2.4,2.1c0.8,0.3,2,0.4,3.4,0.4
			c3,0,5.9-2.6,8.8-7.8S549.2,367.2,550.2,359.6z"/>
		<path class="st7" d="M619.2,312.7c-0.2-3.5-2.6-5.2-7.2-5.2c-5.7,0-9.8,3.1-12.2,9.2c-0.7,1.8-1.2,3.6-1.6,5.5l-2.2,10.7h10.4
			l-1,5.2H595l-14.9,70.2c-1.7,8.1-5,14-9.8,17.8c-3.7,2.9-8,4.3-12.9,4.3c-4.9,0-8.8-1.3-11.8-3.9c-3-2.6-4.5-6.2-4.5-10.6
			c0-7.3,4.8-12.7,14.3-16.2c2.7-1,5.4-1.9,8.1-2.8l14.5-68.4c4-18.6,14.1-27.9,30.4-27.9c12.1,0,19.5,3.2,22.3,9.5
			c0.7,1.6,1,3.4,1,5.5c0,3.9-1.1,6.6-3.2,8.1c-2.1,1.6-4.5,2.3-7.1,2.3c-5.2,0-7.8-2.3-7.8-7c0-1.5,0.4-2.9,1.2-4.3
			c0.8-1.4,1.9-2.1,3.2-2.1h0.6C618.9,312.6,619.1,312.6,619.2,312.7z M562.7,401c-9.6,3.1-14.4,7.3-14.4,12.5c0,1.9,0.6,3.2,1.8,4
			c1.2,0.8,2.4,1.2,3.6,1.2c1.2,0,2.6-0.8,4.1-2.3c1.5-1.5,2.6-4.2,3.4-7.8L562.7,401z M643,374.5c-5.6,16-14.9,24.1-28.1,24.1
			c-3.4,0-6.4-1.2-9.1-3.7c-2.7-2.5-4-6.4-4-11.9c0-2.5,0.3-5.3,1-8.5l8.8-41.7h18.7L621,377c-0.3,1.6-0.5,3.1-0.5,4.6
			c0,2.9,1.8,4.4,5.3,4.4c2.5,0,4.9-1.1,7.1-3.3c2.2-2.2,3.7-4.9,4.7-8.2H643z"/>
		<path class="st7" d="M677.7,374.5c-5.6,16-14.9,24.1-28,24.1c-3.4,0-6.5-1.2-9.2-3.7c-2.7-2.5-4-6.4-4-11.9c0-2.5,0.3-5.3,1-8.5
			l13.9-65.1l19.2-2.6L655.7,377c-0.3,1.6-0.5,3.1-0.5,4.6c0,2.9,1.8,4.4,5.3,4.4c2.5,0,4.9-1.1,7.1-3.3c2.2-2.2,3.7-4.9,4.7-8.2
			H677.7z"/>
		<path class="st7" d="M689.6,375.5c0,7.2,2.8,10.8,8.3,10.8c2.4,0,5-0.7,7.8-2.1c2.8-1.4,5.3-3,7.3-4.8
			c-2.3,12.8-9.8,19.2-22.5,19.2c-6.1,0-11-1.6-14.7-4.8c-3.7-3.2-5.5-8.5-5.5-15.8c0-9.9,2.5-19.5,7.6-28.8
			c3.9-7.1,9.1-12.1,15.7-15.1c3.4-1.6,7-2.4,10.7-2.4c6,0,10.1,1.1,12.3,3.4s3.2,5.3,3.2,9c0,7.4-3,13.8-8.9,18.9
			c-5.9,5.2-12.9,8-21,8.5C689.7,372.7,689.6,374,689.6,375.5z M709.8,343.2c0-3.1-1.1-4.7-3.2-4.7c-4.1,0.2-8.1,5-11.9,14.3
			c-1.6,4-2.9,8.2-3.9,12.4c5-0.2,9.4-2.4,13.2-6.8C707.9,354.2,709.8,349.1,709.8,343.2z"/>
		<path class="st7" d="M722.3,368.9l2.3-10.2h26l-2.2,10.2H722.3z"/>
		<path class="st7" d="M789.7,331.7c10.4,0,15.6,3.9,15.6,11.8c0,3.3-0.7,5.7-2,7.3c-1.4,1.5-2.9,2.3-4.6,2.3
			c-1.7,0-3.3-0.5-4.9-1.5c1.1-2.8,1.6-5.4,1.6-7.7c0-3.6-1.2-5.3-3.7-5.3c-2.5,0-5.1,2.2-7.8,6.7c-3.9,6.3-6.6,14.2-8.1,23.7
			c-0.4,2.8-0.6,5.9-0.6,9.3c0,6.3,3,9.4,9,9.4c5,0,9.2-1.1,12.6-3.3c3.4-2.2,7-5.5,10.8-9.8h4.4c-9.7,16-21.6,24.1-35.7,24.1
			c-6.2,0-11.1-1.6-14.8-4.8c-3.7-3.2-5.5-8.5-5.5-15.8c0-9.9,2.5-19.6,7.6-28.8c3.8-7,9-12,15.7-15
			C782.5,332.5,786,331.7,789.7,331.7z"/>
		<path class="st7" d="M881.3,374.5c-5.5,16-14.2,24.1-26.1,24.1c-7.7,0-11.9-4-12.8-11.9c-5.7,8-12.3,11.9-19.8,11.9
			c-7.6,0-12.7-3.7-15.4-11.1c-1-2.7-1.5-5.7-1.5-9.1s0.3-6.8,0.9-10.2c0.6-3.4,1.5-6.8,2.7-10.2c2.7-7.4,6.6-13.6,11.6-18.5
			c5-4.9,11.1-7.3,18.2-7.3c3.7,0,6.4,0.6,8.1,1.9s2.5,2.8,2.5,4.7v1l1.4-6.9h18.7l-9.3,44.2c-0.4,1.5-0.6,2.9-0.6,4.2
			c0,3.7,1.8,5.6,5.3,5.6c4.6,0,8.1-4.1,10.5-12.3H881.3z M848.5,345.2c0-0.8-0.4-1.8-1.1-3.1c-0.7-1.2-2.3-1.9-4.7-1.9
			s-4.8,1.3-7,3.9c-5.5,6.2-9,15.2-10.3,26.8c-0.2,1.8-0.3,3.7-0.3,5.6c0,3.9,0.8,6.5,2.4,8.1c0.9,0.9,2.1,1.4,3.5,1.4
			c2.6,0,4.9-1,7-3.1c2.1-2.1,3.6-4.9,4.4-8.4L848.5,345.2z"/>
		<path class="st7" d="M870.8,397.8l13.8-65h18.7l-1.7,8.1c2.2-1.9,4.5-3.7,7.1-5.5c2.6-1.7,5.4-2.6,8.4-2.6c3,0,5.3,1,6.8,3
			c1.5,2,2.3,3.9,2.3,5.7c0,3.1-0.8,5.7-2.5,7.6c-1.7,1.9-3.7,2.9-6.1,2.9c-2.4,0-3.9-0.5-4.7-1.6c-0.8-1.1-1.2-2.2-1.4-3.3
			c-0.2-1.1-0.4-2-0.7-2.7c-0.3-0.7-0.9-1-1.7-1c-1.8,0-3.3,0.4-4.7,1.2c-1.4,0.8-2.9,2.1-4.6,3.7l-10.4,49.4H870.8z"/>
		<path class="st7" d="M959.5,386.6c-5.2,8-11.7,11.9-19.5,11.9s-12.9-3.7-15.6-11.1c-1-2.7-1.5-5.7-1.5-9.1s0.3-6.8,0.9-10.2
			c0.6-3.4,1.5-6.8,2.7-10.2c2.7-7.4,6.6-13.6,11.6-18.5c5-4.9,11.1-7.3,18.2-7.3c3.7,0,6.4,0.6,8.1,1.9s2.5,2.8,2.5,4.7v0.5
			l6.3-29.9l19.2-2.6L977.6,377c-0.4,1.5-0.6,3-0.6,4.6c0,3,1.8,4.4,5.3,4.4c4.9,0,8.4-3.8,10.5-11.5h5.5
			c-5.4,15.5-14.1,23.3-26.1,23.3C964.8,397.8,960.5,394.1,959.5,386.6z M942.2,376.5c0,6.3,2.2,9.5,6.5,9.5c1.8,0,3.8-0.9,6.1-2.6
			c2.2-1.8,3.8-4.5,4.7-8.2v-0.7l6.3-29.8c-0.8-3-2.6-4.5-5.3-4.5c-2.8,0-5.3,1.3-7.6,3.9c-5.5,6.2-9,15.2-10.3,26.8
			C942.3,372.7,942.2,374.6,942.2,376.5z"/>
		<path class="st7" d="M1030.9,328.8c0.3,8.1,0.7,14.9,1,20.4l1.6,20.6c0.2,2,0.3,4.3,0.3,6.8c0,2.5-0.4,4.9-1.2,7.1
			c-0.8,2.2-1.9,4.2-3.2,5.8c-2.5,3.1-5.7,5.4-9.6,6.9c-3.9,1.5-7.7,2.2-11.4,2.2c-6.4,0-11.3-1.7-14.6-5s-5-6.9-5-10.6
			c0-3.7,0.7-6.7,2.2-8.7c1.4-2.1,3-3.5,4.8-4.4c6.1-10.9,11.4-23.8,16-38.5L1030.9,328.8z M1002.4,388.3c8.3,0,12.4-4,12.4-12.1
			c0-2.2-0.2-4.9-0.5-7.9l-0.8-7.4c-0.5-4.7-0.9-9.9-1.2-15.4c-2.2,7.1-5.7,15.3-10.5,24.6c2,0.9,3,2.3,3,4.2c0,1.8-0.5,3.4-1.6,4.8
			c-1,1.3-2.4,2-4.2,2c-1.8,0-2.9-0.6-3.5-1.7C995.6,385.3,997.9,388.3,1002.4,388.3z"/>
	</g>
</g>
</svg>
